<svg width="160" height="48" viewBox="0 0 160 48" fill="none" xmlns="http://www.w3.org/2000/svg">
<g clip-path="url(#clip0_44_16)">
<rect width="160" height="48" rx="24" fill="#1A1A1A"/>
<path d="M39.768 19.182H39.12L35.34 30H33.144L37.608 17.4H41.244L45.726 30H43.53L39.768 19.182ZM35.592 25.158H42.936V26.922H35.592V25.158ZM54.6156 20.964C54.6156 20.4 54.4296 19.962 54.0576 19.65C53.6976 19.338 53.1876 19.182 52.5276 19.182H49.3056V22.728H52.5276C53.1876 22.728 53.6976 22.578 54.0576 22.278C54.4296 21.966 54.6156 21.528 54.6156 20.964ZM47.1636 30V17.4H52.7436C53.6316 17.4 54.3696 17.55 54.9576 17.85C55.5576 18.15 56.0076 18.552 56.3076 19.056C56.6196 19.548 56.7756 20.094 56.7756 20.694C56.7756 21.246 56.6736 21.714 56.4696 22.098C56.2656 22.482 55.9896 22.788 55.6416 23.016C55.2936 23.244 54.9036 23.406 54.4716 23.502V23.646C54.9876 23.718 55.4436 23.868 55.8396 24.096C56.2356 24.324 56.5416 24.648 56.7576 25.068C56.9736 25.488 57.0816 26.01 57.0816 26.634C57.0816 27.27 56.9136 27.846 56.5776 28.362C56.2536 28.866 55.7856 29.268 55.1736 29.568C54.5616 29.856 53.8296 30 52.9776 30H47.1636ZM49.3056 28.218H52.7616C53.4456 28.218 53.9796 28.062 54.3636 27.75C54.7476 27.438 54.9396 26.988 54.9396 26.4C54.9396 25.776 54.7296 25.302 54.3096 24.978C53.9016 24.654 53.3616 24.492 52.6896 24.492H49.3056V28.218ZM65.0349 30.126C64.1469 30.126 63.3129 29.97 62.5329 29.658C61.7529 29.346 61.0689 28.908 60.4809 28.344C59.9049 27.768 59.4489 27.09 59.1129 26.31C58.7889 25.518 58.6269 24.648 58.6269 23.7C58.6269 22.764 58.7889 21.906 59.1129 21.126C59.4489 20.334 59.9049 19.65 60.4809 19.074C61.0689 18.498 61.7529 18.054 62.5329 17.742C63.3129 17.43 64.1469 17.274 65.0349 17.274C65.9229 17.274 66.7509 17.43 67.5189 17.742C68.2989 18.054 68.9769 18.498 69.5529 19.074C70.1409 19.65 70.5969 20.334 70.9209 21.126C71.2569 21.906 71.4249 22.764 71.4249 23.7C71.4249 24.648 71.2569 25.518 70.9209 26.31C70.5969 27.09 70.1409 27.768 69.5529 28.344C68.9769 28.908 68.2989 29.346 67.5189 29.658C66.7509 29.97 65.9229 30.126 65.0349 30.126ZM65.0349 28.308C65.8509 28.308 66.5769 28.122 67.2129 27.75C67.8489 27.366 68.3469 26.832 68.7069 26.148C69.0669 25.452 69.2469 24.636 69.2469 23.7C69.2469 22.752 69.0669 21.936 68.7069 21.252C68.3469 20.568 67.8489 20.04 67.2129 19.668C66.5769 19.284 65.8509 19.092 65.0349 19.092C64.2189 19.092 63.4929 19.284 62.8569 19.668C62.2209 20.04 61.7169 20.568 61.3449 21.252C60.9849 21.936 60.8049 22.752 60.8049 23.7C60.8049 24.636 60.9849 25.452 61.3449 26.148C61.7169 26.832 62.2209 27.366 62.8569 27.75C63.4929 28.122 64.2189 28.308 65.0349 28.308ZM73.3362 17.4H75.4602V25.428C75.4602 26.064 75.5862 26.598 75.8382 27.03C76.1022 27.462 76.4562 27.786 76.9002 28.002C77.3442 28.206 77.8482 28.308 78.4122 28.308C79.0002 28.308 79.5162 28.206 79.9602 28.002C80.4042 27.786 80.7522 27.462 81.0042 27.03C81.2682 26.598 81.4002 26.064 81.4002 25.428V17.4H83.5242V25.374C83.5242 26.178 83.3802 26.88 83.0922 27.48C82.8162 28.068 82.4322 28.56 81.9402 28.956C81.4602 29.352 80.9142 29.646 80.3022 29.838C79.7022 30.03 79.0662 30.126 78.3942 30.126C77.5062 30.126 76.6782 29.952 75.9102 29.604C75.1422 29.256 74.5182 28.734 74.0382 28.038C73.5702 27.33 73.3362 26.442 73.3362 25.374V17.4ZM85.4687 17.4H95.3687V19.182H91.4987V30H89.3567V19.182H85.4687V17.4ZM104.519 30H102.377V17.4H104.771L109.019 27.192L113.267 17.4H115.643V30H113.519V21.486L109.829 30H108.209L104.519 21.486V30ZM126.889 19.182H120.427V22.728H125.269V24.51H120.427V28.218H126.889V30H118.285V17.4H126.889V19.182Z" fill="white"/>
<rect x="-7" y="48" width="20.8696" height="5.21739" rx="2.6087" transform="rotate(-38.521 -7 48)" fill="url(#paint0_linear_44_16)"/>
<rect x="-1.77344" y="53.2266" width="26.2413" height="5.21739" rx="2.6087" transform="rotate(-38.521 -1.77344 53.2266)" fill="url(#paint1_linear_44_16)"/>
<rect x="165.008" y="0.3125" width="20.8696" height="5.21739" rx="2.6087" transform="rotate(141.479 165.008 0.3125)" fill="url(#paint2_linear_44_16)"/>
<rect x="159.781" y="-4.91406" width="26.2413" height="5.21739" rx="2.6087" transform="rotate(141.479 159.781 -4.91406)" fill="url(#paint3_linear_44_16)"/>
</g>
<defs>
<linearGradient id="paint0_linear_44_16" x1="3.43478" y1="48" x2="3.43478" y2="53.2174" gradientUnits="userSpaceOnUse">
<stop stop-color="white"/>
<stop offset="1" stop-color="#999999"/>
</linearGradient>
<linearGradient id="paint1_linear_44_16" x1="11.3472" y1="53.2266" x2="11.3472" y2="58.444" gradientUnits="userSpaceOnUse">
<stop stop-color="white"/>
<stop offset="1" stop-color="#999999"/>
</linearGradient>
<linearGradient id="paint2_linear_44_16" x1="175.443" y1="0.3125" x2="175.443" y2="5.52989" gradientUnits="userSpaceOnUse">
<stop stop-color="white"/>
<stop offset="1" stop-color="#999999"/>
</linearGradient>
<linearGradient id="paint3_linear_44_16" x1="172.902" y1="-4.91406" x2="172.902" y2="0.303329" gradientUnits="userSpaceOnUse">
<stop stop-color="white"/>
<stop offset="1" stop-color="#999999"/>
</linearGradient>
<clipPath id="clip0_44_16">
<rect width="160" height="48" rx="24" fill="white"/>
</clipPath>
</defs>
</svg>
