<svg width="36" height="36" viewBox="0 0 36 36" fill="none" xmlns="http://www.w3.org/2000/svg">
<rect width="36" height="36" rx="18" fill="#1A1A1A"/>
<path d="M16.0245 17.0115C16.7283 18.2479 17.7521 19.2717 18.9885 19.9755L19.6515 19.047C19.7581 18.8977 19.9158 18.7927 20.0946 18.7518C20.2734 18.7108 20.4611 18.7369 20.622 18.825C21.6827 19.4047 22.8542 19.7533 24.0593 19.848C24.2473 19.8629 24.4229 19.9482 24.5509 20.0867C24.6789 20.2253 24.75 20.4071 24.75 20.5958V23.9423C24.75 24.1279 24.6812 24.3071 24.5568 24.4449C24.4324 24.5828 24.2612 24.6696 24.0765 24.6885C23.679 24.7298 23.2785 24.75 22.875 24.75C16.455 24.75 11.25 19.545 11.25 13.125C11.25 12.7215 11.2703 12.321 11.3115 11.9235C11.3304 11.7388 11.4172 11.5676 11.5551 11.4432C11.6929 11.3188 11.8721 11.25 12.0578 11.25H15.4043C15.5929 11.25 15.7747 11.3211 15.9133 11.4491C16.0518 11.5771 16.1371 11.7527 16.152 11.9408C16.2467 13.1458 16.5953 14.3173 17.175 15.378C17.2631 15.5389 17.2892 15.7266 17.2483 15.9054C17.2073 16.0842 17.1023 16.2419 16.953 16.3485L16.0245 17.0115ZM14.133 16.5188L15.558 15.501C15.1536 14.6281 14.8765 13.7016 14.7353 12.75H12.7575C12.753 12.8745 12.7508 12.9998 12.7508 13.125C12.75 18.717 17.283 23.25 22.875 23.25C23.0003 23.25 23.1255 23.2478 23.25 23.2425V21.2648C22.2984 21.1235 21.3719 20.8464 20.499 20.442L19.4813 21.867C19.0715 21.7078 18.6735 21.5198 18.2903 21.3045L18.2468 21.2797C16.7757 20.4425 15.5575 19.2243 14.7203 17.7533L14.6955 17.7098C14.4802 17.3265 14.2922 16.9285 14.133 16.5188Z" fill="white"/>
</svg>
