<svg width="32" height="32" viewBox="0 0 32 32" fill="none" xmlns="http://www.w3.org/2000/svg">
<rect x="0.335762" y="0.335762" width="31.3285" height="31.3285" rx="15.6642" stroke="white" stroke-width="0.671523"/>
<path d="M16 18.6827L13.3458 16.0292L13.8767 15.4893L15.625 17.2375V10.75H16.375V17.2375L18.1225 15.49L18.6542 16.0292L16 18.6827ZM11.962 21.25C11.6165 21.25 11.3282 21.1345 11.0972 20.9035C10.8662 20.6725 10.7505 20.384 10.75 20.038V18.2208H11.5V20.038C11.5 20.1535 11.548 20.2595 11.644 20.356C11.74 20.4525 11.8457 20.5005 11.9612 20.5H20.0387C20.1538 20.5 20.2595 20.452 20.356 20.356C20.4525 20.26 20.5005 20.154 20.5 20.038V18.2208H21.25V20.038C21.25 20.3835 21.1345 20.6718 20.9035 20.9028C20.6725 21.1338 20.384 21.2495 20.038 21.25H11.962Z" fill="white"/>
</svg>
