<svg width="36" height="36" viewBox="0 0 36 36" fill="none" xmlns="http://www.w3.org/2000/svg">
<rect width="36" height="36" rx="18" fill="#1A1A1A"/>
<path d="M11.25 11.75H24.75C24.9489 11.75 25.1397 11.829 25.2803 11.9697C25.421 12.1103 25.5 12.3011 25.5 12.5V23.5C25.5 23.6989 25.421 23.8897 25.2803 24.0303C25.1397 24.171 24.9489 24.25 24.75 24.25H11.25C11.0511 24.25 10.8603 24.171 10.7197 24.0303C10.579 23.8897 10.5 23.6989 10.5 23.5V12.5C10.5 12.3011 10.579 12.1103 10.7197 11.9697C10.8603 11.829 11.0511 11.75 11.25 11.75ZM24 14.9285L18.054 20.2535L12 14.912V22.75H24V14.9285ZM12.3833 13.25L18.0457 18.2465L23.6265 13.25H12.3833Z" fill="white"/>
</svg>
