<svg width="159" height="32" viewBox="0 0 159 32" fill="none" xmlns="http://www.w3.org/2000/svg">
<rect width="30.116" height="5.64675" fill="white"/>
<rect y="26.3516" width="30.116" height="5.64675" fill="white"/>
<rect x="5.65625" y="7.53125" width="24.4692" height="5.64675" transform="rotate(90 5.65625 7.53125)" fill="white"/>
<rect x="15.0625" y="7.52344" width="16.9402" height="5.64675" transform="rotate(90 15.0625 7.52344)" fill="white"/>
<rect x="30.125" y="13.1719" width="18.8225" height="5.64675" transform="rotate(180 30.125 13.1719)" fill="white"/>
<path d="M42.9282 25V6.71802H54.6401V9.49424H46.24V14.4575H53.8367V17.2337H46.24V25H42.9282ZM57.5145 25V11.2885H60.746V25H57.5145ZM59.1392 9.34248C58.6274 9.34248 58.187 9.17287 57.818 8.83366C57.4491 8.48849 57.2646 8.07488 57.2646 7.59284C57.2646 7.10484 57.4491 6.69124 57.818 6.35202C58.187 6.00685 58.6274 5.83427 59.1392 5.83427C59.6569 5.83427 60.0973 6.00685 60.4603 6.35202C60.8293 6.69124 61.0138 7.10484 61.0138 7.59284C61.0138 8.07488 60.8293 8.48849 60.4603 8.83366C60.0973 9.17287 59.6569 9.34248 59.1392 9.34248ZM67.3005 6.71802V25H64.069V6.71802H67.3005ZM73.8549 6.71802V25H70.6234V6.71802H73.8549ZM79.1864 30.1418C78.746 30.1418 78.3384 30.1061 77.9635 30.0347C77.5945 29.9692 77.2999 29.8919 77.0797 29.8026L77.8296 27.2852C78.2997 27.4221 78.7193 27.4876 79.0882 27.4816C79.4572 27.4757 79.7815 27.3596 80.0613 27.1335C80.3469 26.9133 80.5879 26.5443 80.7843 26.0266L81.061 25.2857L76.0888 11.2885H79.5167L82.6768 21.6435H82.8196L85.9886 11.2885H89.4254L83.9355 26.6604C83.6796 27.3864 83.3403 28.0083 82.9178 28.5261C82.4953 29.0498 81.9775 29.4485 81.3646 29.7223C80.7575 30.002 80.0315 30.1418 79.1864 30.1418ZM97.455 25.2857C96.2291 25.2857 95.1609 24.9792 94.2503 24.3662C93.3457 23.7532 92.6435 22.9141 92.1436 21.8489C91.6437 20.7836 91.3938 19.5696 91.3938 18.2067C91.3938 16.832 91.6467 15.6091 92.1525 14.5378C92.6643 13.4666 93.3725 12.6275 94.2771 12.0205C95.1817 11.4075 96.2321 11.1011 97.4282 11.1011C98.3447 11.1011 99.1749 11.2796 99.9188 11.6367C100.663 11.9878 101.276 12.4847 101.758 13.1274C102.246 13.7642 102.552 14.5081 102.677 15.3591H101.07C100.904 14.5855 100.502 13.9249 99.8652 13.3774C99.2344 12.8239 98.431 12.5472 97.455 12.5472C96.5802 12.5472 95.8066 12.7852 95.1341 13.2613C94.4616 13.7315 93.9349 14.3891 93.554 15.2341C93.1791 16.0732 92.9917 17.0463 92.9917 18.1532C92.9917 19.2661 93.1761 20.251 93.5451 21.1079C93.9141 21.959 94.4318 22.6255 95.0984 23.1075C95.7708 23.5896 96.5564 23.8306 97.455 23.8306C98.062 23.8306 98.6155 23.7175 99.1154 23.4914C99.6213 23.2593 100.044 22.932 100.383 22.5094C100.728 22.0869 100.96 21.584 101.079 21.0008H102.686C102.567 21.828 102.272 22.566 101.802 23.2147C101.338 23.8574 100.734 24.3632 99.9902 24.7322C99.2523 25.1012 98.4072 25.2857 97.455 25.2857ZM111.421 25.2857C110.237 25.2857 109.189 24.9851 108.279 24.3841C107.374 23.783 106.666 22.9528 106.154 21.8935C105.642 20.8282 105.386 19.5993 105.386 18.2067C105.386 16.8023 105.642 15.5674 106.154 14.5021C106.666 13.4309 107.374 12.5978 108.279 12.0027C109.189 11.4016 110.237 11.1011 111.421 11.1011C112.605 11.1011 113.65 11.4016 114.554 12.0027C115.459 12.6037 116.167 13.4369 116.679 14.5021C117.197 15.5674 117.455 16.8023 117.455 18.2067C117.455 19.5993 117.2 20.8282 116.688 21.8935C116.176 22.9528 115.465 23.783 114.554 24.3841C113.65 24.9851 112.605 25.2857 111.421 25.2857ZM111.421 23.8306C112.373 23.8306 113.179 23.5747 113.84 23.0629C114.501 22.5511 115.001 21.8697 115.34 21.0187C115.685 20.1677 115.858 19.2303 115.858 18.2067C115.858 17.1831 115.685 16.2429 115.34 15.3859C115.001 14.5289 114.501 13.8416 113.84 13.3238C113.179 12.8061 112.373 12.5472 111.421 12.5472C110.475 12.5472 109.668 12.8061 109.002 13.3238C108.341 13.8416 107.838 14.5289 107.493 15.3859C107.154 16.2429 106.984 17.1831 106.984 18.2067C106.984 19.2303 107.154 20.1677 107.493 21.0187C107.838 21.8697 108.341 22.5511 109.002 23.0629C109.662 23.5747 110.469 23.8306 111.421 23.8306ZM125.88 25.2857C124.755 25.2857 123.77 24.9881 122.925 24.393C122.08 23.7979 121.42 22.9677 120.944 21.9024C120.473 20.8372 120.238 19.5963 120.238 18.18C120.238 16.7695 120.473 15.5347 120.944 14.4754C121.42 13.4101 122.083 12.5829 122.934 11.9937C123.785 11.3986 124.776 11.1011 125.907 11.1011C126.74 11.1011 127.433 11.2498 127.987 11.5474C128.54 11.839 128.984 12.202 129.317 12.6365C129.65 13.0709 129.909 13.4934 130.093 13.904H130.236V6.71802H131.834V25H130.281V22.4559H130.093C129.909 22.8725 129.647 23.3009 129.308 23.7413C128.969 24.1758 128.519 24.5418 127.96 24.8393C127.407 25.1369 126.713 25.2857 125.88 25.2857ZM126.067 23.8306C126.954 23.8306 127.71 23.5896 128.335 23.1075C128.96 22.6195 129.436 21.95 129.763 21.099C130.096 20.242 130.263 19.2601 130.263 18.1532C130.263 17.0582 130.099 16.0911 129.772 15.252C129.445 14.4069 128.969 13.7463 128.344 13.2703C127.719 12.7882 126.96 12.5472 126.067 12.5472C125.151 12.5472 124.377 12.7971 123.747 13.297C123.122 13.791 122.646 14.4605 122.318 15.3055C121.997 16.1506 121.836 17.0998 121.836 18.1532C121.836 19.2184 122 20.1796 122.327 21.0365C122.654 21.8935 123.131 22.5749 123.755 23.0807C124.386 23.5806 125.157 23.8306 126.067 23.8306ZM141.904 25.2857C140.624 25.2857 139.517 24.9881 138.583 24.393C137.648 23.7919 136.925 22.9617 136.414 21.9024C135.908 20.8372 135.655 19.6112 135.655 18.2246C135.655 16.8439 135.908 15.618 136.414 14.5468C136.925 13.4696 137.631 12.6275 138.529 12.0205C139.434 11.4075 140.478 11.1011 141.663 11.1011C142.406 11.1011 143.124 11.2379 143.814 11.5117C144.504 11.7795 145.123 12.1931 145.671 12.7525C146.224 13.306 146.662 14.0052 146.983 14.8503C147.304 15.6894 147.465 16.6832 147.465 17.8318V18.6174H136.753V17.2159H145.84C145.84 16.3351 145.662 15.5436 145.305 14.8414C144.954 14.1332 144.463 13.5738 143.832 13.1631C143.207 12.7525 142.484 12.5472 141.663 12.5472C140.794 12.5472 140.029 12.7793 139.368 13.2435C138.708 13.7077 138.19 14.3206 137.815 15.0824C137.446 15.8441 137.259 16.6773 137.253 17.5819V18.421C137.253 19.51 137.44 20.4622 137.815 21.2775C138.196 22.0869 138.735 22.7148 139.431 23.1611C140.127 23.6074 140.951 23.8306 141.904 23.8306C142.552 23.8306 143.121 23.7294 143.609 23.5271C144.102 23.3247 144.516 23.054 144.849 22.7148C145.189 22.3696 145.444 21.9917 145.617 21.5811L147.126 22.072C146.917 22.6493 146.575 23.1819 146.099 23.6699C145.629 24.1579 145.04 24.5507 144.332 24.8482C143.629 25.1399 142.82 25.2857 141.904 25.2857ZM150.966 25V11.2885H152.511V13.3952H152.627C152.901 12.7049 153.377 12.1485 154.055 11.7259C154.739 11.2974 155.513 11.0832 156.376 11.0832C156.507 11.0832 156.653 11.0862 156.813 11.0921C156.974 11.0981 157.108 11.104 157.215 11.11V12.7257C157.144 12.7138 157.019 12.696 156.84 12.6722C156.662 12.6484 156.468 12.6365 156.26 12.6365C155.546 12.6365 154.909 12.7882 154.35 13.0917C153.796 13.3893 153.359 13.8029 153.037 14.3325C152.716 14.8622 152.555 15.4662 152.555 16.1447V25H150.966Z" fill="white"/>
</svg>
