<svg width="247" height="60" viewBox="0 0 247 60" fill="none" xmlns="http://www.w3.org/2000/svg">
<g clip-path="url(#clip0_22_23)">
<circle cx="30" cy="30" r="30" fill="url(#paint0_linear_22_23)"/>
<rect x="-7.80469" y="60.4062" width="20.8696" height="5.21739" rx="2.6087" transform="rotate(-38.521 -7.80469 60.4062)" fill="url(#paint1_linear_22_23)"/>
<rect x="-2.57812" y="65.6328" width="26.2413" height="5.21739" rx="2.6087" transform="rotate(-38.521 -2.57812 65.6328)" fill="url(#paint2_linear_22_23)"/>
<rect x="69.2109" y="2.73438" width="20.8696" height="5.21739" rx="2.6087" transform="rotate(141.479 69.2109 2.73438)" fill="url(#paint3_linear_22_23)"/>
<rect x="65.1797" y="-3.70312" width="26.2413" height="5.21739" rx="2.6087" transform="rotate(141.479 65.1797 -3.70312)" fill="url(#paint4_linear_22_23)"/>
<path d="M38.9919 42C38.3263 42 37.6815 41.8128 37.0575 41.4384C36.4543 41.064 35.9655 40.4712 35.5911 39.66C35.2167 38.8488 35.0295 37.8088 35.0295 36.54C35.0295 35.5 35.1543 34.3352 35.4039 33.0456C35.6535 31.7352 35.9759 30.4248 36.3711 29.1144C36.7871 27.804 37.2343 26.6184 37.7127 25.5576C36.2775 26.5144 35.0191 27.8352 33.9375 29.52C32.8559 31.2048 31.9199 33.16 31.1295 35.3856C31.2959 36.0512 31.4311 36.6752 31.5351 37.2576C31.6391 37.84 31.6911 38.3704 31.6911 38.8488C31.6911 39.764 31.4727 40.4816 31.0359 41.0016C30.5991 41.5216 29.8399 41.7816 28.7583 41.7816C27.8015 41.7816 27.0943 41.5736 26.6367 41.1576C26.1999 40.7208 25.9815 40.1176 25.9815 39.348C25.9815 38.8488 26.0647 38.2768 26.2311 37.632C26.4183 36.9872 26.6783 36.2904 27.0111 35.5416C26.6367 34.4392 26.1791 33.2016 25.6383 31.8288C25.0975 30.4352 24.3383 28.9168 23.3607 27.2736C23.0695 28.5008 22.7679 29.728 22.4559 30.9552C22.1647 32.1616 21.9151 33.2848 21.7071 34.3248C21.5199 35.344 21.4263 36.2072 21.4263 36.9144C21.4263 38.0584 21.7383 38.6304 22.3623 38.6304L22.4247 38.6928C22.4247 39.3792 22.2479 39.972 21.8943 40.4712C21.5615 40.9496 21.1247 41.324 20.5839 41.5944C20.0639 41.844 19.5127 41.9688 18.9303 41.9688C18.3687 41.9688 17.8175 41.8336 17.2767 41.5632C16.7567 41.2928 16.3303 40.8768 15.9975 40.3152C15.6647 39.7328 15.4983 38.9944 15.4983 38.1C15.4983 37.2264 15.6439 36.3008 15.9351 35.3232C16.2471 34.3248 16.6215 33.3264 17.0583 32.328C17.4951 31.3088 17.9215 30.352 18.3375 29.4576C18.8783 28.2928 19.3463 27.2528 19.7415 26.3376C20.1575 25.4016 20.4279 24.6112 20.5527 23.9664C20.1367 23.6752 19.6895 23.5296 19.2111 23.5296C18.8159 23.5296 18.4103 23.6648 17.9943 23.9352C17.5991 24.1848 17.2247 24.6112 16.8711 25.2144L16.6527 25.1208C16.6735 24.06 16.9023 23.0928 17.3391 22.2192C17.7759 21.3248 18.3479 20.6176 19.0551 20.0976C19.7831 19.5568 20.5735 19.2864 21.4263 19.2864C22.4039 19.2864 23.4127 19.7128 24.4527 20.5656C25.4927 21.4184 26.4495 22.8224 27.3231 24.7776C28.2175 26.7328 28.9351 29.3744 29.4759 32.7024C30.2663 30.144 31.1191 28.0016 32.0343 26.2752C32.9495 24.5488 33.8855 23.176 34.8423 22.1568C35.8199 21.1376 36.7767 20.4096 37.7127 19.9728C38.6695 19.5152 39.5743 19.2864 40.4271 19.2864C41.4879 19.2864 42.4343 19.5464 43.2663 20.0664C44.1191 20.5864 44.7847 21.2416 45.2631 22.032C45.7623 22.8224 46.0119 23.6128 46.0119 24.4032C45.4919 24.2576 44.9719 24.1536 44.4519 24.0912C43.9527 24.0288 43.4639 23.9976 42.9855 23.9976C42.5071 23.9976 42.0495 24.0288 41.6127 24.0912C41.4255 25.048 41.2279 26.1192 41.0199 27.3048C40.8119 28.4696 40.6247 29.6448 40.4583 30.8304C40.3127 32.016 40.2399 33.108 40.2399 34.1064C40.2399 35.1256 40.3439 35.9576 40.5519 36.6024C40.7599 37.2472 41.1239 37.5696 41.6439 37.5696C41.9767 37.5696 42.3095 37.424 42.6423 37.1328C42.9959 36.8416 43.2559 36.3944 43.4223 35.7912L43.6407 35.8848C43.6407 37.2576 43.4119 38.4016 42.9543 39.3168C42.4967 40.2112 41.9039 40.8872 41.1759 41.3448C40.4687 41.7816 39.7407 42 38.9919 42Z" fill="white"/>
</g>
<path d="M81.896 21.2H93.128V23.216H84.296V28.472H90.92V30.488H84.296V38H81.896V21.2ZM101.165 38L100.973 36.248C100.605 36.856 100.125 37.328 99.5332 37.664C98.9572 37.984 98.2052 38.144 97.2772 38.144C96.4132 38.144 95.6772 38.008 95.0692 37.736C94.4612 37.448 93.9892 37.056 93.6532 36.56C93.3332 36.048 93.1732 35.456 93.1732 34.784C93.1732 33.776 93.5492 32.944 94.3012 32.288C95.0532 31.616 96.1412 31.2 97.5652 31.04L100.973 30.656V29.72C100.973 29.208 100.765 28.776 100.349 28.424C99.9332 28.056 99.3332 27.872 98.5492 27.872C97.8132 27.872 97.1892 28.048 96.6772 28.4C96.1652 28.736 95.8212 29.24 95.6452 29.912L93.6292 29.192C93.9332 28.136 94.5252 27.312 95.4052 26.72C96.3012 26.128 97.3812 25.832 98.6452 25.832C100.149 25.832 101.293 26.208 102.077 26.96C102.861 27.712 103.253 28.704 103.253 29.936V38H101.165ZM100.973 32.504L97.6852 32.912C96.9812 33.008 96.4532 33.208 96.1012 33.512C95.7492 33.8 95.5732 34.184 95.5732 34.664C95.5732 35.112 95.7412 35.488 96.0772 35.792C96.4292 36.08 96.9172 36.224 97.5412 36.224C98.3092 36.224 98.9492 36.08 99.4612 35.792C99.9732 35.504 100.349 35.104 100.589 34.592C100.845 34.064 100.973 33.456 100.973 32.768V32.504ZM115.549 28.04L115.285 28.112V20.72H117.565V38H115.501L115.333 36.2C114.933 36.744 114.389 37.208 113.701 37.592C113.029 37.976 112.205 38.168 111.229 38.168C110.141 38.168 109.189 37.912 108.373 37.4C107.573 36.888 106.941 36.168 106.477 35.24C106.029 34.312 105.805 33.232 105.805 32C105.805 30.768 106.029 29.688 106.477 28.76C106.941 27.832 107.573 27.112 108.373 26.6C109.189 26.088 110.141 25.832 111.229 25.832C112.269 25.832 113.149 26.048 113.869 26.48C114.605 26.896 115.165 27.416 115.549 28.04ZM108.229 32C108.229 33.232 108.549 34.224 109.189 34.976C109.829 35.728 110.685 36.104 111.757 36.104C112.413 36.104 113.005 35.944 113.533 35.624C114.061 35.304 114.485 34.84 114.805 34.232C115.125 33.608 115.285 32.864 115.285 32C115.285 31.136 115.125 30.4 114.805 29.792C114.485 29.184 114.061 28.72 113.533 28.4C113.005 28.064 112.413 27.896 111.757 27.896C110.701 27.896 109.845 28.272 109.189 29.024C108.549 29.776 108.229 30.768 108.229 32ZM128.306 38L128.114 36.248C127.746 36.856 127.266 37.328 126.674 37.664C126.098 37.984 125.346 38.144 124.418 38.144C123.554 38.144 122.818 38.008 122.21 37.736C121.602 37.448 121.13 37.056 120.794 36.56C120.474 36.048 120.314 35.456 120.314 34.784C120.314 33.776 120.69 32.944 121.442 32.288C122.194 31.616 123.282 31.2 124.706 31.04L128.114 30.656V29.72C128.114 29.208 127.906 28.776 127.49 28.424C127.074 28.056 126.474 27.872 125.69 27.872C124.954 27.872 124.33 28.048 123.818 28.4C123.306 28.736 122.962 29.24 122.786 29.912L120.77 29.192C121.074 28.136 121.666 27.312 122.546 26.72C123.442 26.128 124.522 25.832 125.786 25.832C127.29 25.832 128.434 26.208 129.218 26.96C130.002 27.712 130.394 28.704 130.394 29.936V38H128.306ZM128.114 32.504L124.826 32.912C124.122 33.008 123.594 33.208 123.242 33.512C122.89 33.8 122.714 34.184 122.714 34.664C122.714 35.112 122.882 35.488 123.218 35.792C123.57 36.08 124.058 36.224 124.682 36.224C125.45 36.224 126.09 36.08 126.602 35.792C127.114 35.504 127.49 35.104 127.73 34.592C127.986 34.064 128.114 33.456 128.114 32.768V32.504ZM133.642 26H135.706L135.85 27.608C136.186 27.192 136.57 26.848 137.002 26.576C137.45 26.288 137.93 26.088 138.442 25.976C138.97 25.864 139.514 25.872 140.074 26V28.136C139.546 28.008 139.034 27.992 138.538 28.088C138.042 28.184 137.594 28.392 137.194 28.712C136.81 29.016 136.498 29.424 136.258 29.936C136.018 30.448 135.898 31.064 135.898 31.784V38H133.642V26ZM147.334 38.168C146.182 38.168 145.158 37.904 144.262 37.376C143.382 36.832 142.686 36.088 142.174 35.144C141.678 34.2 141.43 33.12 141.43 31.904C141.43 30.736 141.678 29.696 142.174 28.784C142.67 27.872 143.35 27.152 144.214 26.624C145.094 26.096 146.086 25.832 147.19 25.832C148.31 25.832 149.302 26.08 150.166 26.576C151.03 27.056 151.702 27.736 152.182 28.616C152.662 29.48 152.894 30.48 152.878 31.616C152.878 31.808 152.87 32.008 152.854 32.216C152.838 32.408 152.814 32.624 152.782 32.864H143.902C143.95 33.504 144.126 34.072 144.43 34.568C144.75 35.048 145.15 35.424 145.63 35.696C146.126 35.968 146.686 36.104 147.31 36.104C148.11 36.104 148.806 35.952 149.398 35.648C149.99 35.328 150.406 34.904 150.646 34.376L152.614 35.072C152.134 36.048 151.43 36.808 150.502 37.352C149.59 37.896 148.534 38.168 147.334 38.168ZM150.406 30.92C150.406 30.344 150.262 29.824 149.974 29.36C149.686 28.896 149.294 28.536 148.798 28.28C148.318 28.008 147.774 27.872 147.166 27.872C146.622 27.872 146.118 28.008 145.654 28.28C145.206 28.536 144.822 28.896 144.502 29.36C144.198 29.808 144.006 30.328 143.926 30.92H150.406ZM164.944 38H162.544V21.2H165.184L171.16 34.808L177.112 21.2H179.728V38H177.352V25.856L172.024 38H170.272L164.944 25.856V38ZM183.713 26H185.993V38H183.713V26ZM184.865 23.888C184.433 23.888 184.073 23.744 183.785 23.456C183.497 23.168 183.353 22.816 183.353 22.4C183.353 21.968 183.497 21.608 183.785 21.32C184.073 21.016 184.433 20.864 184.865 20.864C185.281 20.864 185.633 21.016 185.921 21.32C186.225 21.608 186.377 21.968 186.377 22.4C186.377 22.816 186.225 23.168 185.921 23.456C185.633 23.744 185.281 23.888 184.865 23.888ZM194.911 38.168C193.759 38.168 192.743 37.912 191.863 37.4C190.983 36.872 190.295 36.152 189.799 35.24C189.319 34.328 189.079 33.264 189.079 32.048C189.079 30.816 189.327 29.736 189.823 28.808C190.319 27.88 191.007 27.152 191.887 26.624C192.767 26.096 193.791 25.832 194.959 25.832C196.191 25.832 197.271 26.12 198.199 26.696C199.143 27.272 199.823 28.048 200.239 29.024L198.199 29.744C197.959 29.184 197.551 28.736 196.975 28.4C196.415 28.064 195.775 27.896 195.055 27.896C194.319 27.896 193.687 28.072 193.159 28.424C192.631 28.76 192.223 29.24 191.935 29.864C191.647 30.472 191.503 31.192 191.503 32.024C191.503 33.272 191.823 34.264 192.463 35C193.103 35.736 193.967 36.104 195.055 36.104C195.775 36.104 196.415 35.944 196.975 35.624C197.551 35.304 197.983 34.864 198.271 34.304L200.287 35.024C199.839 35.984 199.135 36.752 198.175 37.328C197.215 37.888 196.127 38.168 194.911 38.168ZM203.041 20.72H205.297V27.32C205.681 26.856 206.177 26.496 206.785 26.24C207.393 25.968 208.065 25.832 208.801 25.832C209.697 25.832 210.481 26.032 211.153 26.432C211.841 26.816 212.377 27.4 212.761 28.184C213.145 28.952 213.337 29.912 213.337 31.064V38H210.961V31.352C210.961 30.232 210.729 29.376 210.265 28.784C209.801 28.192 209.121 27.896 208.225 27.896C207.297 27.896 206.577 28.2 206.065 28.808C205.553 29.416 205.297 30.304 205.297 31.472V38H203.041V20.72ZM223.931 38L223.739 36.248C223.371 36.856 222.891 37.328 222.299 37.664C221.723 37.984 220.971 38.144 220.043 38.144C219.179 38.144 218.443 38.008 217.835 37.736C217.227 37.448 216.755 37.056 216.419 36.56C216.099 36.048 215.939 35.456 215.939 34.784C215.939 33.776 216.315 32.944 217.067 32.288C217.819 31.616 218.907 31.2 220.331 31.04L223.739 30.656V29.72C223.739 29.208 223.531 28.776 223.115 28.424C222.699 28.056 222.099 27.872 221.315 27.872C220.579 27.872 219.955 28.048 219.443 28.4C218.931 28.736 218.587 29.24 218.411 29.912L216.395 29.192C216.699 28.136 217.291 27.312 218.171 26.72C219.067 26.128 220.147 25.832 221.411 25.832C222.915 25.832 224.059 26.208 224.843 26.96C225.627 27.712 226.019 28.704 226.019 29.936V38H223.931ZM223.739 32.504L220.451 32.912C219.747 33.008 219.219 33.208 218.867 33.512C218.515 33.8 218.339 34.184 218.339 34.664C218.339 35.112 218.507 35.488 218.843 35.792C219.195 36.08 219.683 36.224 220.307 36.224C221.075 36.224 221.715 36.08 222.227 35.792C222.739 35.504 223.115 35.104 223.355 34.592C223.611 34.064 223.739 33.456 223.739 32.768V32.504ZM234.475 38.168C233.323 38.168 232.299 37.904 231.403 37.376C230.523 36.832 229.827 36.088 229.315 35.144C228.819 34.2 228.571 33.12 228.571 31.904C228.571 30.736 228.819 29.696 229.315 28.784C229.811 27.872 230.491 27.152 231.355 26.624C232.235 26.096 233.227 25.832 234.331 25.832C235.451 25.832 236.443 26.08 237.307 26.576C238.171 27.056 238.843 27.736 239.323 28.616C239.803 29.48 240.035 30.48 240.019 31.616C240.019 31.808 240.011 32.008 239.995 32.216C239.979 32.408 239.955 32.624 239.923 32.864H231.043C231.091 33.504 231.267 34.072 231.571 34.568C231.891 35.048 232.291 35.424 232.771 35.696C233.267 35.968 233.827 36.104 234.451 36.104C235.251 36.104 235.947 35.952 236.539 35.648C237.131 35.328 237.547 34.904 237.787 34.376L239.755 35.072C239.275 36.048 238.571 36.808 237.643 37.352C236.731 37.896 235.675 38.168 234.475 38.168ZM237.547 30.92C237.547 30.344 237.403 29.824 237.115 29.36C236.827 28.896 236.435 28.536 235.939 28.28C235.459 28.008 234.915 27.872 234.307 27.872C233.763 27.872 233.259 28.008 232.795 28.28C232.347 28.536 231.963 28.896 231.643 29.36C231.339 29.808 231.147 30.328 231.067 30.92H237.547ZM242.791 20.72H245.047V38H242.791V20.72Z" fill="#1A1A1A"/>
<defs>
<linearGradient id="paint0_linear_22_23" x1="30" y1="0" x2="30" y2="60" gradientUnits="userSpaceOnUse">
<stop offset="1" stop-color="#1A1A1A"/>
</linearGradient>
<linearGradient id="paint1_linear_22_23" x1="2.63009" y1="60.4062" x2="2.63009" y2="65.6236" gradientUnits="userSpaceOnUse">
<stop stop-color="white"/>
<stop offset="1" stop-color="#999999"/>
</linearGradient>
<linearGradient id="paint2_linear_22_23" x1="10.5425" y1="65.6328" x2="10.5425" y2="70.8502" gradientUnits="userSpaceOnUse">
<stop stop-color="white"/>
<stop offset="1" stop-color="#999999"/>
</linearGradient>
<linearGradient id="paint3_linear_22_23" x1="79.6457" y1="7.95177" x2="79.6457" y2="2.73438" gradientUnits="userSpaceOnUse">
<stop stop-color="white"/>
<stop offset="1" stop-color="#999999"/>
</linearGradient>
<linearGradient id="paint4_linear_22_23" x1="78.3004" y1="1.51427" x2="78.3004" y2="-3.70312" gradientUnits="userSpaceOnUse">
<stop stop-color="white"/>
<stop offset="1" stop-color="#999999"/>
</linearGradient>
<clipPath id="clip0_22_23">
<rect width="60" height="60" rx="30" fill="white"/>
</clipPath>
</defs>
</svg>
