<svg width="175" height="26" viewBox="0 0 175 26" fill="none" xmlns="http://www.w3.org/2000/svg">
<g clip-path="url(#clip0_101_2745)">
<circle cx="13" cy="13" r="13" fill="url(#paint0_linear_101_2745)"/>
<rect x="-3.38281" y="26.1797" width="9.04348" height="2.26087" rx="1.13043" transform="rotate(-38.521 -3.38281 26.1797)" fill="url(#paint1_linear_101_2745)"/>
<rect x="-1.11719" y="28.4375" width="11.3712" height="2.26087" rx="1.13043" transform="rotate(-38.521 -1.11719 28.4375)" fill="url(#paint2_linear_101_2745)"/>
<rect x="29.9922" y="1.17969" width="9.04348" height="2.26087" rx="1.13043" transform="rotate(141.479 29.9922 1.17969)" fill="url(#paint3_linear_101_2745)"/>
<rect x="28.25" y="-1.60156" width="11.3712" height="2.26087" rx="1.13043" transform="rotate(141.479 28.25 -1.60156)" fill="url(#paint4_linear_101_2745)"/>
<path d="M16.8959 18.1953C16.6075 18.1953 16.3281 18.1142 16.0577 17.952C15.7963 17.7897 15.5845 17.5328 15.4223 17.1813C15.26 16.8298 15.1789 16.3791 15.1789 15.8293C15.1789 15.3786 15.233 14.8739 15.3411 14.3151C15.4493 13.7472 15.589 13.1794 15.7603 12.6116C15.9405 12.0437 16.1343 11.53 16.3416 11.0703C15.7197 11.4849 15.1744 12.0572 14.7057 12.7873C14.237 13.5174 13.8314 14.3646 13.4889 15.3291C13.561 15.6175 13.6196 15.8879 13.6647 16.1403C13.7097 16.3926 13.7323 16.6225 13.7323 16.8298C13.7323 17.2264 13.6376 17.5373 13.4483 17.7627C13.2591 17.988 12.9301 18.1007 12.4614 18.1007C12.0468 18.1007 11.7403 18.0105 11.542 17.8303C11.3527 17.641 11.2581 17.3796 11.2581 17.0461C11.2581 16.8298 11.2942 16.5819 11.3663 16.3025C11.4474 16.0231 11.5601 15.7212 11.7043 15.3967C11.542 14.919 11.3437 14.3827 11.1094 13.7878C10.875 13.1839 10.5461 12.5259 10.1224 11.8139C9.99624 12.3457 9.86555 12.8774 9.73035 13.4092C9.60416 13.932 9.496 14.4187 9.40587 14.8694C9.32475 15.311 9.28419 15.6851 9.28419 15.9916C9.28419 16.4873 9.41939 16.7352 9.68979 16.7352L9.71683 16.7622C9.71683 17.0596 9.64021 17.3165 9.48699 17.5328C9.34277 17.7401 9.15349 17.9024 8.91915 18.0196C8.69381 18.1277 8.45496 18.1818 8.20259 18.1818C7.95923 18.1818 7.72037 18.1232 7.48603 18.006C7.26069 17.8889 7.07592 17.7086 6.93171 17.4652C6.78749 17.2129 6.71539 16.8929 6.71539 16.5053C6.71539 16.1268 6.77848 15.7257 6.90467 15.302C7.03987 14.8694 7.20211 14.4368 7.39139 14.0041C7.58067 13.5625 7.76544 13.1478 7.94571 12.7603C8.18005 12.2555 8.38285 11.8049 8.55411 11.4083C8.73437 11.0027 8.85155 10.6602 8.90563 10.3808C8.72536 10.2546 8.53157 10.1915 8.32427 10.1915C8.15301 10.1915 7.97725 10.2501 7.79699 10.3672C7.62573 10.4754 7.46349 10.6602 7.31027 10.9216L7.21563 10.881C7.22464 10.4213 7.32379 10.0022 7.51307 9.62363C7.70235 9.23606 7.95021 8.9296 8.25667 8.70427C8.57213 8.46992 8.91464 8.35275 9.28419 8.35275C9.70781 8.35275 10.145 8.53752 10.5956 8.90707C11.0463 9.27662 11.4609 9.88502 11.8395 10.7323C12.227 11.5795 12.538 12.7242 12.7723 14.1664C13.1149 13.0577 13.4844 12.1293 13.881 11.3812C14.2776 10.6331 14.6832 10.0382 15.0978 9.59659C15.5214 9.15494 15.936 8.83947 16.3416 8.65019C16.7562 8.4519 17.1483 8.35275 17.5179 8.35275C17.9775 8.35275 18.3877 8.46542 18.7482 8.69075C19.1177 8.91608 19.4062 9.2 19.6135 9.54251C19.8298 9.88502 19.9379 10.2275 19.9379 10.57C19.7126 10.5069 19.4873 10.4619 19.2619 10.4348C19.0456 10.4078 18.8338 10.3943 18.6265 10.3943C18.4192 10.3943 18.2209 10.4078 18.0316 10.4348C17.9505 10.8494 17.8649 11.3136 17.7747 11.8274C17.6846 12.3321 17.6035 12.8414 17.5314 13.3552C17.4683 13.8689 17.4367 14.3421 17.4367 14.7748C17.4367 15.2164 17.4818 15.5769 17.5719 15.8564C17.6621 16.1358 17.8198 16.2755 18.0451 16.2755C18.1894 16.2755 18.3336 16.2124 18.4778 16.0862C18.631 15.96 18.7437 15.7662 18.8158 15.5048L18.9104 15.5454C18.9104 16.1403 18.8113 16.636 18.613 17.0326C18.4147 17.4202 18.1578 17.7131 17.8423 17.9114C17.5359 18.1007 17.2204 18.1953 16.8959 18.1953Z" fill="url(#paint5_linear_101_2745)"/>
</g>
<path d="M37.58 6H46.94V7.68H39.58V12.06H45.1V13.74H39.58V20H37.58V6ZM53.6377 20L53.4777 18.54C53.171 19.0467 52.771 19.44 52.2777 19.72C51.7977 19.9867 51.171 20.12 50.3977 20.12C49.6777 20.12 49.0643 20.0067 48.5577 19.78C48.051 19.54 47.6577 19.2133 47.3777 18.8C47.111 18.3733 46.9777 17.88 46.9777 17.32C46.9777 16.48 47.291 15.7867 47.9177 15.24C48.5443 14.68 49.451 14.3333 50.6377 14.2L53.4777 13.88V13.1C53.4777 12.6733 53.3043 12.3133 52.9577 12.02C52.611 11.7133 52.111 11.56 51.4577 11.56C50.8443 11.56 50.3243 11.7067 49.8977 12C49.471 12.28 49.1843 12.7 49.0377 13.26L47.3577 12.66C47.611 11.78 48.1043 11.0933 48.8377 10.6C49.5843 10.1067 50.4843 9.86 51.5377 9.86C52.791 9.86 53.7443 10.1733 54.3977 10.8C55.051 11.4267 55.3777 12.2533 55.3777 13.28V20H53.6377ZM53.4777 15.42L50.7377 15.76C50.151 15.84 49.711 16.0067 49.4177 16.26C49.1243 16.5 48.9777 16.82 48.9777 17.22C48.9777 17.5933 49.1177 17.9067 49.3977 18.16C49.691 18.4 50.0977 18.52 50.6177 18.52C51.2577 18.52 51.791 18.4 52.2177 18.16C52.6443 17.92 52.9577 17.5867 53.1577 17.16C53.371 16.72 53.4777 16.2133 53.4777 15.64V15.42ZM65.6245 11.7L65.4045 11.76V5.6H67.3045V20H65.5845L65.4445 18.5C65.1112 18.9533 64.6579 19.34 64.0845 19.66C63.5245 19.98 62.8379 20.14 62.0245 20.14C61.1179 20.14 60.3245 19.9267 59.6445 19.5C58.9779 19.0733 58.4512 18.4733 58.0645 17.7C57.6912 16.9267 57.5045 16.0267 57.5045 15C57.5045 13.9733 57.6912 13.0733 58.0645 12.3C58.4512 11.5267 58.9779 10.9267 59.6445 10.5C60.3245 10.0733 61.1179 9.86 62.0245 9.86C62.8912 9.86 63.6245 10.04 64.2245 10.4C64.8379 10.7467 65.3045 11.18 65.6245 11.7ZM59.5245 15C59.5245 16.0267 59.7912 16.8533 60.3245 17.48C60.8579 18.1067 61.5712 18.42 62.4645 18.42C63.0112 18.42 63.5045 18.2867 63.9445 18.02C64.3845 17.7533 64.7379 17.3667 65.0045 16.86C65.2712 16.34 65.4045 15.72 65.4045 15C65.4045 14.28 65.2712 13.6667 65.0045 13.16C64.7379 12.6533 64.3845 12.2667 63.9445 12C63.5045 11.72 63.0112 11.58 62.4645 11.58C61.5845 11.58 60.8712 11.8933 60.3245 12.52C59.7912 13.1467 59.5245 13.9733 59.5245 15ZM76.2548 20L76.0948 18.54C75.7882 19.0467 75.3882 19.44 74.8948 19.72C74.4148 19.9867 73.7882 20.12 73.0148 20.12C72.2948 20.12 71.6815 20.0067 71.1748 19.78C70.6682 19.54 70.2748 19.2133 69.9948 18.8C69.7282 18.3733 69.5948 17.88 69.5948 17.32C69.5948 16.48 69.9082 15.7867 70.5348 15.24C71.1615 14.68 72.0682 14.3333 73.2548 14.2L76.0948 13.88V13.1C76.0948 12.6733 75.9215 12.3133 75.5748 12.02C75.2282 11.7133 74.7282 11.56 74.0748 11.56C73.4615 11.56 72.9415 11.7067 72.5148 12C72.0882 12.28 71.8015 12.7 71.6548 13.26L69.9748 12.66C70.2282 11.78 70.7215 11.0933 71.4548 10.6C72.2015 10.1067 73.1015 9.86 74.1548 9.86C75.4082 9.86 76.3615 10.1733 77.0148 10.8C77.6682 11.4267 77.9948 12.2533 77.9948 13.28V20H76.2548ZM76.0948 15.42L73.3548 15.76C72.7682 15.84 72.3282 16.0067 72.0348 16.26C71.7415 16.5 71.5948 16.82 71.5948 17.22C71.5948 17.5933 71.7348 17.9067 72.0148 18.16C72.3082 18.4 72.7148 18.52 73.2348 18.52C73.8748 18.52 74.4082 18.4 74.8348 18.16C75.2615 17.92 75.5748 17.5867 75.7748 17.16C75.9882 16.72 76.0948 16.2133 76.0948 15.64V15.42ZM80.7017 10H82.4217L82.5417 11.34C82.8217 10.9933 83.1417 10.7067 83.5017 10.48C83.8751 10.24 84.2751 10.0733 84.7017 9.98C85.1417 9.88667 85.5951 9.89333 86.0617 10V11.78C85.6217 11.6733 85.1951 11.66 84.7817 11.74C84.3684 11.82 83.9951 11.9933 83.6617 12.26C83.3417 12.5133 83.0817 12.8533 82.8817 13.28C82.6817 13.7067 82.5817 14.22 82.5817 14.82V20H80.7017V10ZM92.112 20.14C91.152 20.14 90.2987 19.92 89.552 19.48C88.8187 19.0267 88.2387 18.4067 87.812 17.62C87.3987 16.8333 87.192 15.9333 87.192 14.92C87.192 13.9467 87.3987 13.08 87.812 12.32C88.2254 11.56 88.792 10.96 89.512 10.52C90.2454 10.08 91.072 9.86 91.992 9.86C92.9254 9.86 93.752 10.0667 94.472 10.48C95.192 10.88 95.752 11.4467 96.152 12.18C96.552 12.9 96.7454 13.7333 96.732 14.68C96.732 14.84 96.7254 15.0067 96.712 15.18C96.6987 15.34 96.6787 15.52 96.652 15.72H89.252C89.292 16.2533 89.4387 16.7267 89.692 17.14C89.9587 17.54 90.292 17.8533 90.692 18.08C91.1054 18.3067 91.572 18.42 92.092 18.42C92.7587 18.42 93.3387 18.2933 93.832 18.04C94.3254 17.7733 94.672 17.42 94.872 16.98L96.512 17.56C96.112 18.3733 95.5254 19.0067 94.752 19.46C93.992 19.9133 93.112 20.14 92.112 20.14ZM94.672 14.1C94.672 13.62 94.552 13.1867 94.312 12.8C94.072 12.4133 93.7454 12.1133 93.332 11.9C92.932 11.6733 92.4787 11.56 91.972 11.56C91.5187 11.56 91.0987 11.6733 90.712 11.9C90.3387 12.1133 90.0187 12.4133 89.752 12.8C89.4987 13.1733 89.3387 13.6067 89.272 14.1H94.672ZM106.787 20H104.787V6H106.987L111.967 17.34L116.927 6H119.107V20H117.127V9.88L112.687 20H111.227L106.787 9.88V20ZM122.428 10H124.328V20H122.428V10ZM123.388 8.24C123.028 8.24 122.728 8.12 122.488 7.88C122.248 7.64 122.128 7.34667 122.128 7C122.128 6.64 122.248 6.34 122.488 6.1C122.728 5.84667 123.028 5.72 123.388 5.72C123.734 5.72 124.028 5.84667 124.268 6.1C124.521 6.34 124.648 6.64 124.648 7C124.648 7.34667 124.521 7.64 124.268 7.88C124.028 8.12 123.734 8.24 123.388 8.24ZM131.759 20.14C130.799 20.14 129.952 19.9267 129.219 19.5C128.486 19.06 127.912 18.46 127.499 17.7C127.099 16.94 126.899 16.0533 126.899 15.04C126.899 14.0133 127.106 13.1133 127.519 12.34C127.932 11.5667 128.506 10.96 129.239 10.52C129.972 10.08 130.826 9.86 131.799 9.86C132.826 9.86 133.726 10.1 134.499 10.58C135.286 11.06 135.852 11.7067 136.199 12.52L134.499 13.12C134.299 12.6533 133.959 12.28 133.479 12C133.012 11.72 132.479 11.58 131.879 11.58C131.266 11.58 130.739 11.7267 130.299 12.02C129.859 12.3 129.519 12.7 129.279 13.22C129.039 13.7267 128.919 14.3267 128.919 15.02C128.919 16.06 129.186 16.8867 129.719 17.5C130.252 18.1133 130.972 18.42 131.879 18.42C132.479 18.42 133.012 18.2867 133.479 18.02C133.959 17.7533 134.319 17.3867 134.559 16.92L136.239 17.52C135.866 18.32 135.279 18.96 134.479 19.44C133.679 19.9067 132.772 20.14 131.759 20.14ZM138.534 5.6H140.414V11.1C140.734 10.7133 141.147 10.4133 141.654 10.2C142.16 9.97333 142.72 9.86 143.334 9.86C144.08 9.86 144.734 10.0267 145.294 10.36C145.867 10.68 146.314 11.1667 146.634 11.82C146.954 12.46 147.114 13.26 147.114 14.22V20H145.134V14.46C145.134 13.5267 144.94 12.8133 144.554 12.32C144.167 11.8267 143.6 11.58 142.854 11.58C142.08 11.58 141.48 11.8333 141.054 12.34C140.627 12.8467 140.414 13.5867 140.414 14.56V20H138.534V5.6ZM155.942 20L155.782 18.54C155.476 19.0467 155.076 19.44 154.582 19.72C154.102 19.9867 153.476 20.12 152.702 20.12C151.982 20.12 151.369 20.0067 150.862 19.78C150.356 19.54 149.962 19.2133 149.682 18.8C149.416 18.3733 149.282 17.88 149.282 17.32C149.282 16.48 149.596 15.7867 150.222 15.24C150.849 14.68 151.756 14.3333 152.942 14.2L155.782 13.88V13.1C155.782 12.6733 155.609 12.3133 155.262 12.02C154.916 11.7133 154.416 11.56 153.762 11.56C153.149 11.56 152.629 11.7067 152.202 12C151.776 12.28 151.489 12.7 151.342 13.26L149.662 12.66C149.916 11.78 150.409 11.0933 151.142 10.6C151.889 10.1067 152.789 9.86 153.842 9.86C155.096 9.86 156.049 10.1733 156.702 10.8C157.356 11.4267 157.682 12.2533 157.682 13.28V20H155.942ZM155.782 15.42L153.042 15.76C152.456 15.84 152.016 16.0067 151.722 16.26C151.429 16.5 151.282 16.82 151.282 17.22C151.282 17.5933 151.422 17.9067 151.702 18.16C151.996 18.4 152.402 18.52 152.922 18.52C153.562 18.52 154.096 18.4 154.522 18.16C154.949 17.92 155.262 17.5867 155.462 17.16C155.676 16.72 155.782 16.2133 155.782 15.64V15.42ZM164.729 20.14C163.769 20.14 162.916 19.92 162.169 19.48C161.436 19.0267 160.856 18.4067 160.429 17.62C160.016 16.8333 159.809 15.9333 159.809 14.92C159.809 13.9467 160.016 13.08 160.429 12.32C160.843 11.56 161.409 10.96 162.129 10.52C162.863 10.08 163.689 9.86 164.609 9.86C165.543 9.86 166.369 10.0667 167.089 10.48C167.809 10.88 168.369 11.4467 168.769 12.18C169.169 12.9 169.363 13.7333 169.349 14.68C169.349 14.84 169.343 15.0067 169.329 15.18C169.316 15.34 169.296 15.52 169.269 15.72H161.869C161.909 16.2533 162.056 16.7267 162.309 17.14C162.576 17.54 162.909 17.8533 163.309 18.08C163.723 18.3067 164.189 18.42 164.709 18.42C165.376 18.42 165.956 18.2933 166.449 18.04C166.943 17.7733 167.289 17.42 167.489 16.98L169.129 17.56C168.729 18.3733 168.143 19.0067 167.369 19.46C166.609 19.9133 165.729 20.14 164.729 20.14ZM167.289 14.1C167.289 13.62 167.169 13.1867 166.929 12.8C166.689 12.4133 166.363 12.1133 165.949 11.9C165.549 11.6733 165.096 11.56 164.589 11.56C164.136 11.56 163.716 11.6733 163.329 11.9C162.956 12.1133 162.636 12.4133 162.369 12.8C162.116 13.1733 161.956 13.6067 161.889 14.1H167.289ZM171.659 5.6H173.539V20H171.659V5.6Z" fill="white"/>
<defs>
<linearGradient id="paint0_linear_101_2745" x1="13" y1="0" x2="13" y2="26" gradientUnits="userSpaceOnUse">
<stop offset="1" stop-color="white"/>
</linearGradient>
<linearGradient id="paint1_linear_101_2745" x1="1.13893" y1="26.1797" x2="1.13893" y2="28.4406" gradientUnits="userSpaceOnUse">
<stop stop-color="#7C7C7C"/>
<stop offset="1" stop-color="#1A1A1A"/>
</linearGradient>
<linearGradient id="paint2_linear_101_2745" x1="4.56844" y1="28.4375" x2="4.56844" y2="30.6984" gradientUnits="userSpaceOnUse">
<stop stop-color="#7C7C7C"/>
<stop offset="1" stop-color="#1A1A1A"/>
</linearGradient>
<linearGradient id="paint3_linear_101_2745" x1="34.5139" y1="1.17969" x2="34.5139" y2="3.44056" gradientUnits="userSpaceOnUse">
<stop stop-color="#7C7C7C"/>
<stop offset="1" stop-color="#1A1A1A"/>
</linearGradient>
<linearGradient id="paint4_linear_101_2745" x1="33.9356" y1="-1.60156" x2="33.9356" y2="0.659307" gradientUnits="userSpaceOnUse">
<stop stop-color="#7C7C7C"/>
<stop offset="1" stop-color="#1A1A1A"/>
</linearGradient>
<linearGradient id="paint5_linear_101_2745" x1="13.2422" y1="5.19531" x2="13.2422" y2="19.1953" gradientUnits="userSpaceOnUse">
<stop stop-color="#7C7C7C"/>
<stop offset="1" stop-color="#1A1A1A"/>
</linearGradient>
<clipPath id="clip0_101_2745">
<rect width="26" height="26" rx="13" fill="white"/>
</clipPath>
</defs>
</svg>
