<svg width="234" height="34" viewBox="0 0 234 34" fill="none" xmlns="http://www.w3.org/2000/svg">
<g clip-path="url(#clip0_147_616)">
<rect width="115.254" height="33.5284" rx="16.7642" fill="#1A1A1A"/>
<path d="M18.9178 12.1988H24.9278V13.4435H20.414V15.9205H23.7962V17.1652H20.414V21H18.9178V12.1988ZM26.2217 14.7134H27.5042L27.6174 15.493C27.785 15.2834 27.982 15.1116 28.2083 14.9775C28.4346 14.835 28.6777 14.7386 28.9375 14.6883C29.2058 14.638 29.474 14.6464 29.7422 14.7134V16.021C29.5243 15.9456 29.2896 15.9288 29.0381 15.9707C28.7951 16.0043 28.5687 16.0965 28.3592 16.2474C28.1496 16.3899 27.9778 16.5952 27.8437 16.8634C27.7096 17.1233 27.6425 17.446 27.6425 17.8316V21H26.2217V14.7134ZM33.544 21.088C32.9405 21.088 32.3999 20.9581 31.9221 20.6982C31.4443 20.43 31.0713 20.057 30.8031 19.5792C30.5349 19.0931 30.4007 18.5231 30.4007 17.8693C30.4007 17.2071 30.539 16.6329 30.8157 16.1468C31.0923 15.6606 31.4737 15.2876 31.9598 15.0278C32.446 14.7595 32.9866 14.6254 33.5817 14.6254C34.1853 14.6254 34.7259 14.7595 35.2037 15.0278C35.6898 15.2876 36.0754 15.6606 36.3604 16.1468C36.6454 16.6245 36.7879 17.1903 36.7879 17.8441C36.7879 18.5063 36.6412 19.0805 36.3478 19.5667C36.0628 20.0528 35.6731 20.43 35.1785 20.6982C34.6924 20.9581 34.1475 21.088 33.544 21.088ZM33.5315 19.8181C33.8248 19.8181 34.1014 19.7469 34.3613 19.6044C34.6295 19.4619 34.8474 19.2481 35.0151 18.9632C35.1827 18.6698 35.2665 18.2968 35.2665 17.8441C35.2665 17.4083 35.1869 17.0478 35.0277 16.7629C34.8684 16.4695 34.6588 16.2515 34.399 16.1091C34.1392 15.9666 33.8584 15.8953 33.5566 15.8953C33.2632 15.8953 32.9908 15.9666 32.7393 16.1091C32.4963 16.2515 32.2993 16.4695 32.1484 16.7629C31.9975 17.0478 31.9221 17.4167 31.9221 17.8693C31.9221 18.3052 31.9933 18.6698 32.1358 18.9632C32.2867 19.2481 32.4837 19.4619 32.7268 19.6044C32.9699 19.7469 33.2381 19.8181 33.5315 19.8181ZM38.1196 14.7134H39.402L39.5026 15.3295C39.7122 15.1116 39.9594 14.9397 40.2444 14.814C40.5378 14.6883 40.8521 14.6254 41.1874 14.6254C41.682 14.6254 42.1053 14.7302 42.4573 14.9397C42.8177 15.1409 43.0943 15.4427 43.2871 15.845C43.4799 16.239 43.5763 16.7335 43.5763 17.3286V21H42.1555V17.5172C42.1555 16.9892 42.0466 16.591 41.8286 16.3228C41.6191 16.0546 41.3006 15.9205 40.8731 15.9205C40.4372 15.9205 40.1061 16.0588 39.8798 16.3354C39.6535 16.6036 39.5403 17.0017 39.5403 17.5298V21H38.1196V14.7134ZM45.5452 14.7134V12.9532H46.9911V14.7134H48.4622V15.9582H46.9911V18.7494C46.9911 19.1266 47.0623 19.3906 47.2048 19.5415C47.3473 19.684 47.5317 19.7636 47.7581 19.7804C47.9928 19.7888 48.2275 19.7762 48.4622 19.7427V20.9497C48.1017 21.0251 47.7455 21.0461 47.3934 21.0126C47.0498 20.9874 46.7396 20.8952 46.463 20.736C46.1864 20.5683 45.9643 20.3252 45.7966 20.0067C45.629 19.6882 45.5452 19.2691 45.5452 18.7494V15.9582H44.6651V14.7134H45.5452ZM52.5023 21.088C51.8736 21.088 51.3204 20.9497 50.8426 20.6731C50.3732 20.3965 50.0044 20.0109 49.7362 19.5164C49.4763 19.0218 49.3464 18.4518 49.3464 17.8064C49.3464 17.1945 49.4763 16.6497 49.7362 16.1719C49.996 15.6941 50.3564 15.3169 50.8175 15.0403C51.2785 14.7637 51.8023 14.6254 52.3891 14.6254C52.9842 14.6254 53.5081 14.7553 53.9607 15.0152C54.4134 15.275 54.7654 15.6397 55.0169 16.1091C55.2767 16.5701 55.4066 17.1065 55.4066 17.7184C55.4066 17.819 55.4025 17.928 55.3941 18.0453C55.3857 18.1543 55.3731 18.2716 55.3564 18.3974H50.8803C50.9222 18.6907 51.0144 18.9464 51.1569 19.1643C51.3078 19.3739 51.4964 19.5373 51.7227 19.6547C51.949 19.772 52.2089 19.8307 52.5023 19.8307C52.8543 19.8307 53.1686 19.7595 53.4452 19.617C53.7302 19.4745 53.9272 19.2859 54.0362 19.0512L55.2809 19.4661C55.0295 19.969 54.6564 20.3672 54.1619 20.6605C53.6674 20.9455 53.1141 21.088 52.5023 21.088ZM53.8602 17.2406C53.8518 16.9808 53.7805 16.7461 53.6464 16.5365C53.5123 16.327 53.3363 16.1635 53.1183 16.0462C52.9004 15.9205 52.6573 15.8576 52.3891 15.8576C52.1544 15.8576 51.9323 15.9163 51.7227 16.0336C51.5132 16.151 51.333 16.3144 51.1821 16.524C51.0396 16.7251 50.9474 16.964 50.9055 17.2406H53.8602ZM56.746 14.7134H58.0284L58.129 15.3295C58.3386 15.1116 58.5858 14.9397 58.8708 14.814C59.1642 14.6883 59.4785 14.6254 59.8138 14.6254C60.3084 14.6254 60.7317 14.7302 61.0837 14.9397C61.4441 15.1409 61.7208 15.4427 61.9135 15.845C62.1063 16.239 62.2027 16.7335 62.2027 17.3286V21H60.782V17.5172C60.782 16.9892 60.673 16.591 60.4551 16.3228C60.2455 16.0546 59.927 15.9205 59.4995 15.9205C59.0636 15.9205 58.7325 16.0588 58.5062 16.3354C58.2799 16.6036 58.1667 17.0017 58.1667 17.5298V21H56.746V14.7134ZM68.3962 15.6438L68.2327 15.6816V11.9473H69.6535V21H68.371L68.2704 20.2205C68.0525 20.4635 67.7759 20.6689 67.4406 20.8365C67.1053 21.0042 66.7072 21.088 66.2462 21.088C65.6846 21.088 65.19 20.9539 64.7625 20.6857C64.3434 20.4174 64.0165 20.0403 63.7818 19.5541C63.5471 19.0679 63.4298 18.5021 63.4298 17.8567C63.4298 17.2113 63.5471 16.6455 63.7818 16.1593C64.0165 15.6732 64.3434 15.296 64.7625 15.0278C65.19 14.7595 65.6846 14.6254 66.2462 14.6254C66.7407 14.6254 67.1724 14.726 67.5412 14.9272C67.91 15.12 68.195 15.3589 68.3962 15.6438ZM64.9511 17.8567C64.9511 18.4351 65.102 18.9045 65.4038 19.2649C65.7055 19.6253 66.0995 19.8056 66.5856 19.8056C66.879 19.8056 67.1472 19.7301 67.3903 19.5792C67.6418 19.4284 67.8429 19.2104 67.9938 18.9254C68.1531 18.6321 68.2327 18.2758 68.2327 17.8567C68.2327 17.4376 68.1531 17.0856 67.9938 16.8006C67.8429 16.5072 67.6418 16.2851 67.3903 16.1342C67.1472 15.9833 66.879 15.9079 66.5856 15.9079C66.0995 15.9079 65.7055 16.0881 65.4038 16.4485C65.102 16.809 64.9511 17.2784 64.9511 17.8567ZM78.0631 12.1988C79.0103 12.1988 79.8276 12.379 80.5149 12.7395C81.2106 13.0999 81.7471 13.6154 82.1243 14.2859C82.5098 14.9481 82.7026 15.7319 82.7026 16.6371C82.7026 17.534 82.5098 18.3093 82.1243 18.9632C81.7471 19.617 81.2106 20.1199 80.5149 20.4719C79.8276 20.824 79.0103 21 78.0631 21H74.9199V12.1988H78.0631ZM78.0631 19.7553C79.069 19.7553 79.8401 19.4828 80.3766 18.938C80.9214 18.3848 81.1939 17.6178 81.1939 16.6371C81.1939 15.648 80.9214 14.8685 80.3766 14.2985C79.8401 13.7285 79.069 13.4435 78.0631 13.4435H76.4161V19.7553H78.0631ZM86.8451 21.088C86.2164 21.088 85.6632 20.9497 85.1854 20.6731C84.716 20.3965 84.3472 20.0109 84.079 19.5164C83.8191 19.0218 83.6892 18.4518 83.6892 17.8064C83.6892 17.1945 83.8191 16.6497 84.079 16.1719C84.3388 15.6941 84.6993 15.3169 85.1603 15.0403C85.6213 14.7637 86.1452 14.6254 86.7319 14.6254C87.3271 14.6254 87.8509 14.7553 88.3036 15.0152C88.7562 15.275 89.1082 15.6397 89.3597 16.1091C89.6196 16.5701 89.7495 17.1065 89.7495 17.7184C89.7495 17.819 89.7453 17.928 89.7369 18.0453C89.7285 18.1543 89.716 18.2716 89.6992 18.3974H85.2231C85.2651 18.6907 85.3573 18.9464 85.4998 19.1643C85.6506 19.3739 85.8392 19.5373 86.0656 19.6547C86.2919 19.772 86.5517 19.8307 86.8451 19.8307C87.1971 19.8307 87.5115 19.7595 87.7881 19.617C88.0731 19.4745 88.27 19.2859 88.379 19.0512L89.6237 19.4661C89.3723 19.969 88.9993 20.3672 88.5047 20.6605C88.0102 20.9455 87.457 21.088 86.8451 21.088ZM88.203 17.2406C88.1946 16.9808 88.1234 16.7461 87.9892 16.5365C87.8551 16.327 87.6791 16.1635 87.4612 16.0462C87.2432 15.9205 87.0002 15.8576 86.7319 15.8576C86.4972 15.8576 86.2751 15.9163 86.0656 16.0336C85.856 16.151 85.6758 16.3144 85.5249 16.524C85.3824 16.7251 85.2902 16.964 85.2483 17.2406H88.203ZM91.9219 14.7134L93.569 19.4912L95.2286 14.7134H96.7248L94.3359 21H92.7768L90.4005 14.7134H91.9219Z" fill="white"/>
<rect x="-4.89062" y="33.5312" width="14.5775" height="3.64439" rx="1.82219" transform="rotate(-38.521 -4.89062 33.5312)" fill="url(#paint0_linear_147_616)"/>
<rect x="-1.24219" y="37.1797" width="18.3298" height="3.64439" rx="1.82219" transform="rotate(-38.521 -1.24219 37.1797)" fill="url(#paint1_linear_147_616)"/>
<rect x="118.75" y="-1.10938" width="14.5775" height="3.64439" rx="1.82219" transform="rotate(141.479 118.75 -1.10938)" fill="url(#paint2_linear_147_616)"/>
<rect x="115.102" y="-4.75781" width="18.3298" height="3.64439" rx="1.82219" transform="rotate(141.479 115.102 -4.75781)" fill="url(#paint3_linear_147_616)"/>
</g>
<g clip-path="url(#clip1_147_616)">
<rect x="118.75" width="115.254" height="33.5284" rx="16.7642" fill="#1A1A1A"/>
<path d="M156.514 21H154.829L152.302 12.1988H153.911L155.671 19.2901L157.545 12.1988H159.217L161.065 19.2649L162.851 12.1988H164.435L161.933 21H160.223L158.375 14.4243L156.514 21ZM167.864 21.088C167.235 21.088 166.682 20.9497 166.204 20.6731C165.735 20.3965 165.366 20.0109 165.097 19.5164C164.838 19.0218 164.708 18.4518 164.708 17.8064C164.708 17.1945 164.838 16.6497 165.097 16.1719C165.357 15.6941 165.718 15.3169 166.179 15.0403C166.64 14.7637 167.164 14.6254 167.75 14.6254C168.346 14.6254 168.869 14.7553 169.322 15.0152C169.775 15.275 170.127 15.6397 170.378 16.1091C170.638 16.5701 170.768 17.1065 170.768 17.7184C170.768 17.819 170.764 17.928 170.755 18.0453C170.747 18.1543 170.734 18.2716 170.718 18.3974H166.242C166.284 18.6907 166.376 18.9464 166.518 19.1643C166.669 19.3739 166.858 19.5373 167.084 19.6547C167.31 19.772 167.57 19.8307 167.864 19.8307C168.216 19.8307 168.53 19.7595 168.807 19.617C169.092 19.4745 169.289 19.2859 169.397 19.0512L170.642 19.4661C170.391 19.969 170.018 20.3672 169.523 20.6605C169.029 20.9455 168.475 21.088 167.864 21.088ZM169.221 17.2406C169.213 16.9808 169.142 16.7461 169.008 16.5365C168.874 16.327 168.698 16.1635 168.48 16.0462C168.262 15.9205 168.019 15.8576 167.75 15.8576C167.516 15.8576 167.294 15.9163 167.084 16.0336C166.874 16.151 166.694 16.3144 166.543 16.524C166.401 16.7251 166.309 16.964 166.267 17.2406H169.221ZM173.365 15.6438C173.566 15.3589 173.851 15.12 174.22 14.9272C174.588 14.726 175.024 14.6254 175.527 14.6254C176.08 14.6254 176.567 14.7595 176.986 15.0278C177.405 15.296 177.732 15.6732 177.966 16.1593C178.209 16.6455 178.331 17.2113 178.331 17.8567C178.331 18.5021 178.209 19.0679 177.966 19.5541C177.732 20.0403 177.401 20.4174 176.973 20.6857C176.554 20.9539 176.072 21.088 175.527 21.088C175.049 21.088 174.643 21.0042 174.308 20.8365C173.972 20.6689 173.7 20.4635 173.49 20.2205L173.39 21H172.107V11.9473H173.528V15.6816L173.365 15.6438ZM176.81 17.8567C176.81 17.2784 176.655 16.809 176.344 16.4485C176.043 16.0881 175.653 15.9079 175.175 15.9079C174.873 15.9079 174.597 15.9833 174.345 16.1342C174.102 16.2851 173.905 16.5072 173.754 16.8006C173.603 17.0856 173.528 17.4376 173.528 17.8567C173.528 18.2758 173.603 18.6321 173.754 18.9254C173.905 19.2104 174.102 19.4284 174.345 19.5792C174.597 19.7301 174.873 19.8056 175.175 19.8056C175.653 19.8056 176.043 19.6253 176.344 19.2649C176.655 18.9045 176.81 18.4351 176.81 17.8567ZM180.49 18.9757C180.549 19.2104 180.649 19.3906 180.792 19.5164C180.943 19.6421 181.106 19.7301 181.282 19.7804C181.458 19.8223 181.626 19.8433 181.785 19.8433C182.112 19.8433 182.368 19.7804 182.552 19.6547C182.745 19.5206 182.841 19.3529 182.841 19.1517C182.841 18.9841 182.778 18.8542 182.653 18.762C182.527 18.6698 182.364 18.5985 182.162 18.5482C181.97 18.4896 181.768 18.4309 181.559 18.3722C181.333 18.3135 181.089 18.2465 180.83 18.171C180.578 18.0956 180.339 17.9908 180.113 17.8567C179.887 17.7226 179.702 17.5508 179.56 17.3412C179.417 17.1317 179.346 16.8718 179.346 16.5617C179.346 16.1677 179.455 15.8283 179.673 15.5433C179.891 15.2499 180.188 15.0236 180.566 14.8643C180.943 14.7051 181.366 14.6254 181.835 14.6254C182.397 14.6254 182.883 14.7428 183.294 14.9775C183.705 15.2122 184.002 15.5558 184.187 16.0085L182.942 16.4108C182.883 16.2935 182.795 16.1929 182.678 16.1091C182.569 16.0252 182.435 15.9666 182.276 15.933C182.125 15.8911 181.97 15.8702 181.81 15.8702C181.542 15.8702 181.316 15.9246 181.131 16.0336C180.947 16.1426 180.855 16.2976 180.855 16.4988C180.855 16.5994 180.884 16.6874 180.943 16.7629C181.01 16.8383 181.098 16.9012 181.207 16.9515C181.316 16.9934 181.446 17.0353 181.597 17.0772C181.747 17.1107 181.907 17.1526 182.074 17.2029C182.343 17.2784 182.607 17.3622 182.866 17.4544C183.135 17.5382 183.378 17.6472 183.596 17.7813C183.822 17.9154 183.998 18.0914 184.124 18.3093C184.258 18.5273 184.333 18.8039 184.35 19.1392C184.35 19.4996 184.245 19.8307 184.036 20.1325C183.826 20.4258 183.524 20.6605 183.13 20.8365C182.745 21.0042 182.284 21.088 181.747 21.088C181.127 21.088 180.595 20.9539 180.151 20.6857C179.706 20.4174 179.405 19.9858 179.245 19.3906L180.49 18.9757ZM185.888 14.7134H187.309V21H185.888V14.7134ZM186.605 13.7579C186.345 13.7579 186.127 13.6699 185.951 13.4938C185.775 13.3178 185.687 13.1083 185.687 12.8652C185.687 12.6053 185.775 12.3874 185.951 12.2114C186.127 12.0354 186.345 11.9473 186.605 11.9473C186.857 11.9473 187.07 12.0354 187.246 12.2114C187.422 12.3874 187.51 12.6053 187.51 12.8652C187.51 13.1083 187.422 13.3178 187.246 13.4938C187.07 13.6699 186.857 13.7579 186.605 13.7579ZM189.589 14.7134V12.9532H191.035V14.7134H192.506V15.9582H191.035V18.7494C191.035 19.1266 191.106 19.3906 191.249 19.5415C191.391 19.684 191.576 19.7636 191.802 19.7804C192.037 19.7888 192.271 19.7762 192.506 19.7427V20.9497C192.145 21.0251 191.789 21.0461 191.437 21.0126C191.094 20.9874 190.783 20.8952 190.507 20.736C190.23 20.5683 190.008 20.3252 189.84 20.0067C189.673 19.6882 189.589 19.2691 189.589 18.7494V15.9582H188.709V14.7134H189.589ZM196.546 21.088C195.917 21.088 195.364 20.9497 194.886 20.6731C194.417 20.3965 194.048 20.0109 193.78 19.5164C193.52 19.0218 193.39 18.4518 193.39 17.8064C193.39 17.1945 193.52 16.6497 193.78 16.1719C194.04 15.6941 194.4 15.3169 194.861 15.0403C195.322 14.7637 195.846 14.6254 196.433 14.6254C197.028 14.6254 197.552 14.7553 198.005 15.0152C198.457 15.275 198.809 15.6397 199.061 16.1091C199.32 16.5701 199.45 17.1065 199.45 17.7184C199.45 17.819 199.446 17.928 199.438 18.0453C199.429 18.1543 199.417 18.2716 199.4 18.3974H194.924C194.966 18.6907 195.058 18.9464 195.201 19.1643C195.352 19.3739 195.54 19.5373 195.766 19.6547C195.993 19.772 196.253 19.8307 196.546 19.8307C196.898 19.8307 197.212 19.7595 197.489 19.617C197.774 19.4745 197.971 19.2859 198.08 19.0512L199.325 19.4661C199.073 19.969 198.7 20.3672 198.206 20.6605C197.711 20.9455 197.158 21.088 196.546 21.088ZM197.904 17.2406C197.896 16.9808 197.824 16.7461 197.69 16.5365C197.556 16.327 197.38 16.1635 197.162 16.0462C196.944 15.9205 196.701 15.8576 196.433 15.8576C196.198 15.8576 195.976 15.9163 195.766 16.0336C195.557 16.151 195.377 16.3144 195.226 16.524C195.083 16.7251 194.991 16.964 194.949 17.2406H197.904Z" fill="white"/>
<rect x="113.859" y="33.5234" width="14.5775" height="3.64439" rx="1.82219" transform="rotate(-38.521 113.859 33.5234)" fill="url(#paint4_linear_147_616)"/>
<rect x="117.508" y="37.1719" width="18.3298" height="3.64439" rx="1.82219" transform="rotate(-38.521 117.508 37.1719)" fill="url(#paint5_linear_147_616)"/>
<rect x="237.5" y="-1.10938" width="14.5775" height="3.64439" rx="1.82219" transform="rotate(141.479 237.5 -1.10938)" fill="url(#paint6_linear_147_616)"/>
<rect x="233.844" y="-4.76562" width="18.3298" height="3.64439" rx="1.82219" transform="rotate(141.479 233.844 -4.76562)" fill="url(#paint7_linear_147_616)"/>
</g>
<defs>
<linearGradient id="paint0_linear_147_616" x1="2.39815" y1="33.5312" x2="2.39815" y2="37.1756" gradientUnits="userSpaceOnUse">
<stop stop-color="white"/>
<stop offset="1" stop-color="#999999"/>
</linearGradient>
<linearGradient id="paint1_linear_147_616" x1="7.9227" y1="37.1797" x2="7.9227" y2="40.8241" gradientUnits="userSpaceOnUse">
<stop stop-color="white"/>
<stop offset="1" stop-color="#999999"/>
</linearGradient>
<linearGradient id="paint2_linear_147_616" x1="126.039" y1="-1.10938" x2="126.039" y2="2.53501" gradientUnits="userSpaceOnUse">
<stop stop-color="white"/>
<stop offset="1" stop-color="#999999"/>
</linearGradient>
<linearGradient id="paint3_linear_147_616" x1="124.266" y1="-4.75781" x2="124.266" y2="-1.11343" gradientUnits="userSpaceOnUse">
<stop stop-color="white"/>
<stop offset="1" stop-color="#999999"/>
</linearGradient>
<linearGradient id="paint4_linear_147_616" x1="121.148" y1="33.5234" x2="121.148" y2="37.1678" gradientUnits="userSpaceOnUse">
<stop stop-color="white"/>
<stop offset="1" stop-color="#999999"/>
</linearGradient>
<linearGradient id="paint5_linear_147_616" x1="126.673" y1="37.1719" x2="126.673" y2="40.8163" gradientUnits="userSpaceOnUse">
<stop stop-color="white"/>
<stop offset="1" stop-color="#999999"/>
</linearGradient>
<linearGradient id="paint6_linear_147_616" x1="244.789" y1="-1.10938" x2="244.789" y2="2.53501" gradientUnits="userSpaceOnUse">
<stop stop-color="white"/>
<stop offset="1" stop-color="#999999"/>
</linearGradient>
<linearGradient id="paint7_linear_147_616" x1="243.009" y1="-4.76562" x2="243.009" y2="-1.12124" gradientUnits="userSpaceOnUse">
<stop stop-color="white"/>
<stop offset="1" stop-color="#999999"/>
</linearGradient>
<clipPath id="clip0_147_616">
<rect width="115.254" height="33.5284" rx="16.7642" fill="white"/>
</clipPath>
<clipPath id="clip1_147_616">
<rect x="118.75" width="115.254" height="33.5284" rx="16.7642" fill="white"/>
</clipPath>
</defs>
</svg>
