<svg width="40" height="40" viewBox="0 0 40 40" fill="none" xmlns="http://www.w3.org/2000/svg">
<rect width="40" height="40" rx="20" fill="#1A1A1A"/>
<path d="M19.9984 28.0099L24.4534 23.5549C25.3344 22.6738 25.9344 21.5513 26.1774 20.3292C26.4205 19.1072 26.2957 17.8405 25.8188 16.6893C25.342 15.5382 24.5345 14.5543 23.4985 13.8621C22.4625 13.1699 21.2444 12.8004 19.9984 12.8004C18.7524 12.8004 17.5344 13.1699 16.4984 13.8621C15.4624 14.5543 14.6549 15.5382 14.1781 16.6893C13.7012 17.8405 13.5764 19.1072 13.8194 20.3292C14.0625 21.5513 14.6624 22.6738 15.5434 23.5549L19.9984 28.0099ZM19.9984 30.5551L14.2708 24.8275C13.138 23.6947 12.3666 22.2514 12.0541 20.6802C11.7415 19.109 11.902 17.4803 12.515 16.0002C13.1281 14.5202 14.1663 13.2551 15.4983 12.3651C16.8304 11.4751 18.3964 11 19.9984 11C21.6005 11 23.1665 11.4751 24.4985 12.3651C25.8306 13.2551 26.8688 14.5202 27.4819 16.0002C28.0949 17.4803 28.2553 19.109 27.9428 20.6802C27.6303 22.2514 26.8588 23.6947 25.726 24.8275L19.9984 30.5551ZM19.9984 20.8999C20.4758 20.8999 20.9337 20.7103 21.2712 20.3727C21.6088 20.0352 21.7984 19.5773 21.7984 19.0999C21.7984 18.6225 21.6088 18.1647 21.2712 17.8271C20.9337 17.4896 20.4758 17.2999 19.9984 17.2999C19.5211 17.2999 19.0632 17.4896 18.7256 17.8271C18.3881 18.1647 18.1984 18.6225 18.1984 19.0999C18.1984 19.5773 18.3881 20.0352 18.7256 20.3727C19.0632 20.7103 19.5211 20.8999 19.9984 20.8999ZM19.9984 22.6999C19.0437 22.6999 18.128 22.3206 17.4529 21.6455C16.7777 20.9704 16.3984 20.0547 16.3984 19.0999C16.3984 18.1452 16.7777 17.2295 17.4529 16.5543C18.128 15.8792 19.0437 15.4999 19.9984 15.4999C20.9532 15.4999 21.8689 15.8792 22.544 16.5543C23.2192 17.2295 23.5984 18.1452 23.5984 19.0999C23.5984 20.0547 23.2192 20.9704 22.544 21.6455C21.8689 22.3206 20.9532 22.6999 19.9984 22.6999Z" fill="white"/>
</svg>
