<svg width="60" height="60" viewBox="0 0 60 60" fill="none" xmlns="http://www.w3.org/2000/svg">
<g clip-path="url(#clip0_21_25)">
<circle cx="30" cy="30" r="30" fill="url(#paint0_linear_21_25)"/>
<rect x="-7.80469" y="60.4062" width="20.8696" height="5.21739" rx="2.6087" transform="rotate(-38.521 -7.80469 60.4062)" fill="url(#paint1_linear_21_25)"/>
<rect x="-2.57812" y="65.6328" width="26.2413" height="5.21739" rx="2.6087" transform="rotate(-38.521 -2.57812 65.6328)" fill="url(#paint2_linear_21_25)"/>
<rect x="69.2109" y="2.73438" width="20.8696" height="5.21739" rx="2.6087" transform="rotate(141.479 69.2109 2.73438)" fill="url(#paint3_linear_21_25)"/>
<rect x="65.1797" y="-3.70312" width="26.2413" height="5.21739" rx="2.6087" transform="rotate(141.479 65.1797 -3.70312)" fill="url(#paint4_linear_21_25)"/>
<path d="M38.9919 42C38.3263 42 37.6815 41.8128 37.0575 41.4384C36.4543 41.064 35.9655 40.4712 35.5911 39.66C35.2167 38.8488 35.0295 37.8088 35.0295 36.54C35.0295 35.5 35.1543 34.3352 35.4039 33.0456C35.6535 31.7352 35.9759 30.4248 36.3711 29.1144C36.7871 27.804 37.2343 26.6184 37.7127 25.5576C36.2775 26.5144 35.0191 27.8352 33.9375 29.52C32.8559 31.2048 31.9199 33.16 31.1295 35.3856C31.2959 36.0512 31.4311 36.6752 31.5351 37.2576C31.6391 37.84 31.6911 38.3704 31.6911 38.8488C31.6911 39.764 31.4727 40.4816 31.0359 41.0016C30.5991 41.5216 29.8399 41.7816 28.7583 41.7816C27.8015 41.7816 27.0943 41.5736 26.6367 41.1576C26.1999 40.7208 25.9815 40.1176 25.9815 39.348C25.9815 38.8488 26.0647 38.2768 26.2311 37.632C26.4183 36.9872 26.6783 36.2904 27.0111 35.5416C26.6367 34.4392 26.1791 33.2016 25.6383 31.8288C25.0975 30.4352 24.3383 28.9168 23.3607 27.2736C23.0695 28.5008 22.7679 29.728 22.4559 30.9552C22.1647 32.1616 21.9151 33.2848 21.7071 34.3248C21.5199 35.344 21.4263 36.2072 21.4263 36.9144C21.4263 38.0584 21.7383 38.6304 22.3623 38.6304L22.4247 38.6928C22.4247 39.3792 22.2479 39.972 21.8943 40.4712C21.5615 40.9496 21.1247 41.324 20.5839 41.5944C20.0639 41.844 19.5127 41.9688 18.9303 41.9688C18.3687 41.9688 17.8175 41.8336 17.2767 41.5632C16.7567 41.2928 16.3303 40.8768 15.9975 40.3152C15.6647 39.7328 15.4983 38.9944 15.4983 38.1C15.4983 37.2264 15.6439 36.3008 15.9351 35.3232C16.2471 34.3248 16.6215 33.3264 17.0583 32.328C17.4951 31.3088 17.9215 30.352 18.3375 29.4576C18.8783 28.2928 19.3463 27.2528 19.7415 26.3376C20.1575 25.4016 20.4279 24.6112 20.5527 23.9664C20.1367 23.6752 19.6895 23.5296 19.2111 23.5296C18.8159 23.5296 18.4103 23.6648 17.9943 23.9352C17.5991 24.1848 17.2247 24.6112 16.8711 25.2144L16.6527 25.1208C16.6735 24.06 16.9023 23.0928 17.3391 22.2192C17.7759 21.3248 18.3479 20.6176 19.0551 20.0976C19.7831 19.5568 20.5735 19.2864 21.4263 19.2864C22.4039 19.2864 23.4127 19.7128 24.4527 20.5656C25.4927 21.4184 26.4495 22.8224 27.3231 24.7776C28.2175 26.7328 28.9351 29.3744 29.4759 32.7024C30.2663 30.144 31.1191 28.0016 32.0343 26.2752C32.9495 24.5488 33.8855 23.176 34.8423 22.1568C35.8199 21.1376 36.7767 20.4096 37.7127 19.9728C38.6695 19.5152 39.5743 19.2864 40.4271 19.2864C41.4879 19.2864 42.4343 19.5464 43.2663 20.0664C44.1191 20.5864 44.7847 21.2416 45.2631 22.032C45.7623 22.8224 46.0119 23.6128 46.0119 24.4032C45.4919 24.2576 44.9719 24.1536 44.4519 24.0912C43.9527 24.0288 43.4639 23.9976 42.9855 23.9976C42.5071 23.9976 42.0495 24.0288 41.6127 24.0912C41.4255 25.048 41.2279 26.1192 41.0199 27.3048C40.8119 28.4696 40.6247 29.6448 40.4583 30.8304C40.3127 32.016 40.2399 33.108 40.2399 34.1064C40.2399 35.1256 40.3439 35.9576 40.5519 36.6024C40.7599 37.2472 41.1239 37.5696 41.6439 37.5696C41.9767 37.5696 42.3095 37.424 42.6423 37.1328C42.9959 36.8416 43.2559 36.3944 43.4223 35.7912L43.6407 35.8848C43.6407 37.2576 43.4119 38.4016 42.9543 39.3168C42.4967 40.2112 41.9039 40.8872 41.1759 41.3448C40.4687 41.7816 39.7407 42 38.9919 42Z" fill="white"/>
</g>
<defs>
<linearGradient id="paint0_linear_21_25" x1="30" y1="0" x2="30" y2="60" gradientUnits="userSpaceOnUse">
<stop offset="1" stop-color="#1A1A1A"/>
</linearGradient>
<linearGradient id="paint1_linear_21_25" x1="2.63009" y1="60.4062" x2="2.63009" y2="65.6236" gradientUnits="userSpaceOnUse">
<stop stop-color="white"/>
<stop offset="1" stop-color="#999999"/>
</linearGradient>
<linearGradient id="paint2_linear_21_25" x1="10.5425" y1="65.6328" x2="10.5425" y2="70.8502" gradientUnits="userSpaceOnUse">
<stop stop-color="white"/>
<stop offset="1" stop-color="#999999"/>
</linearGradient>
<linearGradient id="paint3_linear_21_25" x1="79.6457" y1="7.95177" x2="79.6457" y2="2.73438" gradientUnits="userSpaceOnUse">
<stop stop-color="white"/>
<stop offset="1" stop-color="#999999"/>
</linearGradient>
<linearGradient id="paint4_linear_21_25" x1="78.3004" y1="1.51427" x2="78.3004" y2="-3.70312" gradientUnits="userSpaceOnUse">
<stop stop-color="white"/>
<stop offset="1" stop-color="#999999"/>
</linearGradient>
<clipPath id="clip0_21_25">
<rect width="60" height="60" rx="30" fill="white"/>
</clipPath>
</defs>
</svg>
