<svg width="26" height="26" viewBox="0 0 26 26" fill="none" xmlns="http://www.w3.org/2000/svg">
<path d="M12.4319 0.400267C12.5405 -0.13348 13.3032 -0.133479 13.4118 0.400267L14.2519 4.52929C14.3391 4.95759 14.8951 5.07578 15.149 4.71995L17.5959 1.28961C17.9122 0.846179 18.609 1.15641 18.4911 1.68818L17.5791 5.80193C17.4845 6.22865 17.9444 6.56279 18.321 6.34096L21.9516 4.20244C22.421 3.926 22.9313 4.49281 22.6073 4.93066L20.101 8.31784C19.841 8.66919 20.1253 9.16151 20.5596 9.11203L24.7461 8.63509C25.2873 8.57344 25.523 9.29883 25.0489 9.56705L21.3816 11.642C21.0012 11.8572 21.0606 12.4226 21.4774 12.554L25.496 13.8211C26.0155 13.9849 25.9358 14.7435 25.3936 14.7957L21.1994 15.1996C20.7643 15.2415 20.5886 15.7821 20.916 16.0718L24.0718 18.8638C24.4797 19.2248 24.0984 19.8853 23.5818 19.7125L19.5859 18.3755C19.1714 18.2368 18.791 18.6593 18.9723 19.057L20.7196 22.8913C20.9455 23.3869 20.3284 23.8352 19.9268 23.4673L16.8202 20.6206C16.4979 20.3253 15.9786 20.5566 15.9824 20.9936L16.0191 25.2071C16.0239 25.7517 15.2778 25.9103 15.0606 25.4108L13.3804 21.5467C13.2061 21.1459 12.6376 21.1459 12.4633 21.5467L10.7831 25.4108C10.5659 25.9103 9.81987 25.7517 9.82461 25.2071L9.86133 20.9936C9.86514 20.5566 9.34581 20.3253 9.02356 20.6206L5.91692 23.4673C5.51533 23.8352 4.89827 23.3869 5.12414 22.8913L6.87145 19.057C7.0527 18.6593 6.67232 18.2368 6.25782 18.3755L2.26193 19.7125C1.7454 19.8853 1.36403 19.2248 1.77197 18.8638L4.92775 16.0718C5.2551 15.7821 5.07943 15.2415 4.64436 15.1996L0.450149 14.7957C-0.0920251 14.7435 -0.171751 13.9849 0.34772 13.8211L4.3663 12.554C4.78315 12.4226 4.84257 11.8572 4.46216 11.642L0.79484 9.56705C0.320776 9.29883 0.556471 8.57344 1.09765 8.63509L5.28419 9.11203C5.71846 9.16151 6.0027 8.66919 5.74272 8.31784L3.23641 4.93066C2.91242 4.49281 3.42279 3.926 3.8921 4.20244L7.52271 6.34096C7.89931 6.56279 8.35922 6.22865 8.26462 5.80193L7.35268 1.68818C7.23479 1.15641 7.93158 0.84618 8.24788 1.28961L10.6948 4.71995C10.9486 5.07578 11.5047 4.95759 11.5918 4.52929L12.4319 0.400267Z" fill="#0084FF"/>
</svg>
