<svg width="23" height="23" viewBox="0 0 23 23" fill="none" xmlns="http://www.w3.org/2000/svg">
<path d="M8 16.5681H16.7746L18.2857 17.7552V8.8538H19.1429C19.3702 8.8538 19.5882 8.9441 19.7489 9.10485C19.9097 9.26559 20 9.48361 20 9.71094V21.2824L16.1814 18.2824H8.85714C8.62981 18.2824 8.4118 18.1921 8.25105 18.0313C8.09031 17.8706 8 17.6526 8 17.4252V16.5681ZM5.81857 14.8538L2 17.8538V4.56808C2 4.34075 2.09031 4.12273 2.25105 3.96199C2.4118 3.80124 2.62981 3.71094 2.85714 3.71094H15.7143C15.9416 3.71094 16.1596 3.80124 16.3204 3.96199C16.4811 4.12273 16.5714 4.34075 16.5714 4.56808V14.8538H5.81857Z" fill="url(#paint0_linear_95_6621)"/>
<defs>
<linearGradient id="paint0_linear_95_6621" x1="11" y1="3.71094" x2="11" y2="21.2824" gradientUnits="userSpaceOnUse">
<stop stop-color="#AF96FF"/>
<stop offset="1" stop-color="#F5CA6F"/>
</linearGradient>
</defs>
</svg>
