<svg width="234" height="34" viewBox="0 0 234 34" fill="none" xmlns="http://www.w3.org/2000/svg">
<g clip-path="url(#clip0_147_491)">
<rect width="115.254" height="33.5284" rx="16.7642" fill="#1A1A1A"/>
<path d="M24.6301 11.9801H26.1137V17.5877C26.1137 18.0319 26.2018 18.4049 26.3778 18.7067C26.5622 19.0084 26.8095 19.2348 27.1196 19.3856C27.4297 19.5281 27.7818 19.5994 28.1757 19.5994C28.5865 19.5994 28.9469 19.5281 29.257 19.3856C29.5672 19.2348 29.8103 19.0084 29.9863 18.7067C30.1707 18.4049 30.2629 18.0319 30.2629 17.5877V11.9801H31.7465V17.55C31.7465 18.1116 31.6459 18.6019 31.4448 19.021C31.252 19.4317 30.9837 19.7754 30.6401 20.052C30.3048 20.3286 29.9234 20.534 29.4959 20.6681C29.0768 20.8022 28.6326 20.8693 28.1632 20.8693C27.5429 20.8693 26.9645 20.7477 26.4281 20.5046C25.8916 20.2616 25.4558 19.8969 25.1205 19.4108C24.7936 18.9162 24.6301 18.296 24.6301 17.55V11.9801ZM33.5574 11.9801H35.0536V20.7812H33.5574V11.9801ZM36.8595 11.9801H38.3431V17.5877C38.3431 18.0319 38.4311 18.4049 38.6071 18.7067C38.7915 19.0084 39.0388 19.2348 39.3489 19.3856C39.6591 19.5281 40.0111 19.5994 40.4051 19.5994C40.8158 19.5994 41.1762 19.5281 41.4864 19.3856C41.7965 19.2348 42.0396 19.0084 42.2156 18.7067C42.4 18.4049 42.4922 18.0319 42.4922 17.5877V11.9801H43.9759V17.55C43.9759 18.1116 43.8753 18.6019 43.6741 19.021C43.4813 19.4317 43.2131 19.7754 42.8694 20.052C42.5341 20.3286 42.1527 20.534 41.7253 20.6681C41.3062 20.8022 40.8619 20.8693 40.3925 20.8693C39.7722 20.8693 39.1939 20.7477 38.6574 20.5046C38.121 20.2616 37.6851 19.8969 37.3498 19.4108C37.0229 18.9162 36.8595 18.296 36.8595 17.55V11.9801ZM45.485 11.9801H47.1572L49.5336 15.1862L51.9225 11.9801H53.5821L50.3885 16.3807L53.5821 20.7812H51.9225L49.5336 17.5751L47.1572 20.7812H45.485L48.6912 16.3807L45.485 11.9801ZM61.7856 11.9801C62.7328 11.9801 63.55 12.1603 64.2374 12.5207C64.9331 12.8811 65.4695 13.3966 65.8467 14.0672C66.2323 14.7294 66.4251 15.5131 66.4251 16.4184C66.4251 17.3153 66.2323 18.0906 65.8467 18.7444C65.4695 19.3982 64.9331 19.9011 64.2374 20.2532C63.55 20.6052 62.7328 20.7812 61.7856 20.7812H58.6423V11.9801H61.7856ZM61.7856 19.5365C62.7914 19.5365 63.5626 19.2641 64.0991 18.7193C64.6439 18.166 64.9163 17.3991 64.9163 16.4184C64.9163 15.4293 64.6439 14.6498 64.0991 14.0798C63.5626 13.5098 62.7914 13.2248 61.7856 13.2248H60.1385V19.5365H61.7856ZM70.5675 20.8693C69.9389 20.8693 69.3857 20.731 68.9079 20.4543C68.4385 20.1777 68.0697 19.7922 67.8014 19.2976C67.5416 18.8031 67.4117 18.2331 67.4117 17.5877C67.4117 16.9758 67.5416 16.4309 67.8014 15.9532C68.0613 15.4754 68.4217 15.0982 68.8827 14.8216C69.3438 14.545 69.8676 14.4067 70.4544 14.4067C71.0495 14.4067 71.5734 14.5366 72.026 14.7964C72.4787 15.0563 72.8307 15.4209 73.0822 15.8903C73.342 16.3513 73.4719 16.8878 73.4719 17.4997C73.4719 17.6002 73.4677 17.7092 73.4594 17.8266C73.451 17.9355 73.4384 18.0529 73.4216 18.1786H68.9456C68.9875 18.472 69.0797 18.7276 69.2222 18.9456C69.3731 19.1551 69.5617 19.3186 69.788 19.4359C70.0143 19.5533 70.2742 19.6119 70.5675 19.6119C70.9196 19.6119 71.2339 19.5407 71.5105 19.3982C71.7955 19.2557 71.9925 19.0671 72.1015 18.8324L73.3462 19.2473C73.0947 19.7503 72.7217 20.1484 72.2272 20.4418C71.7326 20.7268 71.1794 20.8693 70.5675 20.8693ZM71.9254 17.0219C71.9171 16.762 71.8458 16.5273 71.7117 16.3178C71.5776 16.1082 71.4016 15.9448 71.1836 15.8274C70.9657 15.7017 70.7226 15.6388 70.4544 15.6388C70.2197 15.6388 69.9976 15.6975 69.788 15.8149C69.5785 15.9322 69.3982 16.0957 69.2474 16.3052C69.1049 16.5064 69.0127 16.7453 68.9708 17.0219H71.9254ZM75.7165 18.757C75.7752 18.9917 75.8758 19.1719 76.0183 19.2976C76.1692 19.4234 76.3326 19.5114 76.5086 19.5617C76.6847 19.6036 76.8523 19.6245 77.0116 19.6245C77.3385 19.6245 77.5941 19.5617 77.7785 19.4359C77.9713 19.3018 78.0677 19.1342 78.0677 18.933C78.0677 18.7654 78.0048 18.6354 77.8791 18.5432C77.7534 18.451 77.5899 18.3798 77.3888 18.3295C77.196 18.2708 76.9948 18.2121 76.7852 18.1535C76.5589 18.0948 76.3158 18.0277 76.056 17.9523C75.8045 17.8769 75.5657 17.7721 75.3393 17.638C75.113 17.5039 74.9286 17.332 74.7861 17.1225C74.6436 16.9129 74.5724 16.6531 74.5724 16.3429C74.5724 15.949 74.6813 15.6095 74.8993 15.3245C75.1172 15.0311 75.4148 14.8048 75.792 14.6456C76.1692 14.4863 76.5925 14.4067 77.0619 14.4067C77.6235 14.4067 78.1096 14.524 78.5203 14.7587C78.9311 14.9934 79.2286 15.3371 79.413 15.7897L78.1683 16.1921C78.1096 16.0747 78.0216 15.9741 77.9043 15.8903C77.7953 15.8065 77.6612 15.7478 77.5019 15.7143C77.351 15.6724 77.196 15.6514 77.0367 15.6514C76.7685 15.6514 76.5422 15.7059 76.3578 15.8149C76.1734 15.9238 76.0812 16.0789 76.0812 16.2801C76.0812 16.3807 76.1105 16.4687 76.1692 16.5441C76.2362 16.6195 76.3242 16.6824 76.4332 16.7327C76.5422 16.7746 76.6721 16.8165 76.823 16.8584C76.9738 16.892 77.1331 16.9339 77.3007 16.9842C77.569 17.0596 77.833 17.1434 78.0929 17.2356C78.3611 17.3194 78.6042 17.4284 78.8221 17.5625C79.0484 17.6966 79.2244 17.8727 79.3502 18.0906C79.4843 18.3085 79.5597 18.5851 79.5765 18.9204C79.5765 19.2809 79.4717 19.6119 79.2622 19.9137C79.0526 20.2071 78.7508 20.4418 78.3569 20.6178C77.9713 20.7854 77.5103 20.8693 76.9738 20.8693C76.3536 20.8693 75.8213 20.7351 75.3771 20.4669C74.9328 20.1987 74.631 19.767 74.4718 19.1719L75.7165 18.757ZM81.1148 14.4947H82.5356V20.7812H81.1148V14.4947ZM81.8315 13.5391C81.5716 13.5391 81.3537 13.4511 81.1777 13.2751C81.0017 13.0991 80.9137 12.8895 80.9137 12.6464C80.9137 12.3866 81.0017 12.1687 81.1777 11.9926C81.3537 11.8166 81.5716 11.7286 81.8315 11.7286C82.083 11.7286 82.2967 11.8166 82.4727 11.9926C82.6487 12.1687 82.7368 12.3866 82.7368 12.6464C82.7368 12.8895 82.6487 13.0991 82.4727 13.2751C82.2967 13.4511 82.083 13.5391 81.8315 13.5391ZM89.0148 14.4947H90.2972V19.8383C90.2972 20.5507 90.1212 21.1626 89.7692 21.6739C89.4171 22.1936 88.91 22.5918 88.2478 22.8684C87.5856 23.1534 86.7893 23.2959 85.8589 23.2959L85.6452 22.0763C86.7013 22.0511 87.5018 21.85 88.0466 21.4728C88.5999 21.0956 88.8765 20.5549 88.8765 19.8508V19.8383H89.0399C88.8471 20.1233 88.5663 20.3663 88.1975 20.5675C87.8371 20.7687 87.4054 20.8693 86.9025 20.8693C86.3493 20.8693 85.8589 20.7351 85.4314 20.4669C85.004 20.1987 84.6687 19.8215 84.4256 19.3353C84.1909 18.8492 84.0735 18.2834 84.0735 17.638C84.0735 16.9925 84.1909 16.4268 84.4256 15.9406C84.6687 15.4544 85.004 15.0772 85.4314 14.809C85.8589 14.5408 86.3493 14.4067 86.9025 14.4067C87.2126 14.4067 87.4934 14.4486 87.7449 14.5324C88.0047 14.6078 88.2311 14.7126 88.4238 14.8467C88.625 14.9725 88.7885 15.115 88.9142 15.2742L89.0148 14.4947ZM85.5949 17.638C85.5949 18.2163 85.7458 18.6857 86.0475 19.0462C86.3493 19.4066 86.7516 19.5868 87.2545 19.5868C87.5479 19.5868 87.8161 19.5114 88.0592 19.3605C88.3023 19.2012 88.4993 18.9749 88.6502 18.6815C88.801 18.3882 88.8765 18.0403 88.8765 17.638C88.8765 17.2189 88.801 16.8668 88.6502 16.5818C88.4993 16.2884 88.2981 16.0663 88.0466 15.9154C87.8036 15.7646 87.5395 15.6891 87.2545 15.6891C86.7516 15.6891 86.3493 15.8693 86.0475 16.2298C85.7458 16.5818 85.5949 17.0512 85.5949 17.638ZM91.9643 14.4947H93.2467L93.3473 15.1108C93.5569 14.8928 93.8041 14.721 94.0891 14.5953C94.3825 14.4695 94.6968 14.4067 95.0321 14.4067C95.5267 14.4067 95.9499 14.5114 96.302 14.721C96.6624 14.9222 96.939 15.2239 97.1318 15.6263C97.3246 16.0202 97.421 16.5148 97.421 17.1099V20.7812H96.0002V17.2985C96.0002 16.7704 95.8913 16.3723 95.6733 16.104C95.4638 15.8358 95.1453 15.7017 94.7178 15.7017C94.2819 15.7017 93.9508 15.84 93.7245 16.1166C93.4982 16.3848 93.385 16.783 93.385 17.3111V20.7812H91.9643V14.4947Z" fill="white"/>
<rect x="-4.89062" y="33.5312" width="14.5775" height="3.64439" rx="1.82219" transform="rotate(-38.521 -4.89062 33.5312)" fill="url(#paint0_linear_147_491)"/>
<rect x="-1.24219" y="37.1797" width="18.3298" height="3.64439" rx="1.82219" transform="rotate(-38.521 -1.24219 37.1797)" fill="url(#paint1_linear_147_491)"/>
<rect x="118.75" y="-1.10156" width="14.5775" height="3.64439" rx="1.82219" transform="rotate(141.479 118.75 -1.10156)" fill="url(#paint2_linear_147_491)"/>
<rect x="115.102" y="-4.75781" width="18.3298" height="3.64439" rx="1.82219" transform="rotate(141.479 115.102 -4.75781)" fill="url(#paint3_linear_147_491)"/>
</g>
<g clip-path="url(#clip1_147_491)">
<rect x="118.75" width="115.254" height="33.5284" rx="16.7642" fill="#1A1A1A"/>
<path d="M144.906 20.7812H143.41V11.9801H145.082L148.05 18.8198L151.017 11.9801H152.676V20.7812H151.193V14.8342L148.615 20.7812H147.484L144.906 14.8342V20.7812ZM157.25 20.8693C156.647 20.8693 156.106 20.7393 155.628 20.4795C155.151 20.2113 154.778 19.8383 154.509 19.3605C154.241 18.8743 154.107 18.3043 154.107 17.6505C154.107 16.9884 154.245 16.4142 154.522 15.928C154.799 15.4419 155.18 15.0689 155.666 14.809C156.152 14.5408 156.693 14.4067 157.288 14.4067C157.892 14.4067 158.432 14.5408 158.91 14.809C159.396 15.0689 159.782 15.4419 160.067 15.928C160.352 16.4058 160.494 16.9716 160.494 17.6254C160.494 18.2876 160.348 18.8618 160.054 19.3479C159.769 19.8341 159.379 20.2113 158.885 20.4795C158.399 20.7393 157.854 20.8693 157.25 20.8693ZM157.238 19.5994C157.531 19.5994 157.808 19.5281 158.068 19.3856C158.336 19.2431 158.554 19.0294 158.721 18.7444C158.889 18.451 158.973 18.078 158.973 17.6254C158.973 17.1895 158.893 16.8291 158.734 16.5441C158.575 16.2507 158.365 16.0328 158.105 15.8903C157.846 15.7478 157.565 15.6766 157.263 15.6766C156.97 15.6766 156.697 15.7478 156.446 15.8903C156.203 16.0328 156.006 16.2507 155.855 16.5441C155.704 16.8291 155.628 17.1979 155.628 17.6505C155.628 18.0864 155.7 18.451 155.842 18.7444C155.993 19.0294 156.19 19.2431 156.433 19.3856C156.676 19.5281 156.944 19.5994 157.238 19.5994ZM163.083 15.4251C163.284 15.1401 163.569 14.9012 163.938 14.7084C164.307 14.5073 164.743 14.4067 165.246 14.4067C165.799 14.4067 166.285 14.5408 166.704 14.809C167.123 15.0772 167.45 15.4544 167.685 15.9406C167.928 16.4268 168.05 16.9925 168.05 17.638C168.05 18.2834 167.928 18.8492 167.685 19.3353C167.45 19.8215 167.119 20.1987 166.692 20.4669C166.273 20.7351 165.791 20.8693 165.246 20.8693C164.768 20.8693 164.362 20.7854 164.026 20.6178C163.691 20.4502 163.419 20.2448 163.209 20.0017L163.108 20.7812H161.826V11.7286H163.247V15.4628L163.083 15.4251ZM166.528 17.638C166.528 17.0596 166.373 16.5902 166.063 16.2298C165.761 15.8693 165.372 15.6891 164.894 15.6891C164.592 15.6891 164.315 15.7646 164.064 15.9154C163.821 16.0663 163.624 16.2884 163.473 16.5818C163.322 16.8668 163.247 17.2189 163.247 17.638C163.247 18.0571 163.322 18.4133 163.473 18.7067C163.624 18.9917 163.821 19.2096 164.064 19.3605C164.315 19.5114 164.592 19.5868 164.894 19.5868C165.372 19.5868 165.761 19.4066 166.063 19.0462C166.373 18.6857 166.528 18.2163 166.528 17.638ZM169.505 14.4947H170.925V20.7812H169.505V14.4947ZM170.221 13.5391C169.962 13.5391 169.744 13.4511 169.568 13.2751C169.392 13.0991 169.304 12.8895 169.304 12.6464C169.304 12.3866 169.392 12.1687 169.568 11.9926C169.744 11.8166 169.962 11.7286 170.221 11.7286C170.473 11.7286 170.687 11.8166 170.863 11.9926C171.039 12.1687 171.127 12.3866 171.127 12.6464C171.127 12.8895 171.039 13.0991 170.863 13.2751C170.687 13.4511 170.473 13.5391 170.221 13.5391ZM172.803 11.7286H174.224V20.7812H172.803V11.7286ZM178.701 20.8693C178.072 20.8693 177.519 20.731 177.041 20.4543C176.572 20.1777 176.203 19.7922 175.935 19.2976C175.675 18.8031 175.545 18.2331 175.545 17.5877C175.545 16.9758 175.675 16.4309 175.935 15.9532C176.195 15.4754 176.555 15.0982 177.016 14.8216C177.477 14.545 178.001 14.4067 178.588 14.4067C179.183 14.4067 179.707 14.5366 180.16 14.7964C180.612 15.0563 180.964 15.4209 181.216 15.8903C181.476 16.3513 181.606 16.8878 181.606 17.4997C181.606 17.6002 181.601 17.7092 181.593 17.8266C181.585 17.9355 181.572 18.0529 181.555 18.1786H177.079C177.121 18.472 177.213 18.7276 177.356 18.9456C177.507 19.1551 177.695 19.3186 177.922 19.4359C178.148 19.5533 178.408 19.6119 178.701 19.6119C179.053 19.6119 179.368 19.5407 179.644 19.3982C179.929 19.2557 180.126 19.0671 180.235 18.8324L181.48 19.2473C181.228 19.7503 180.855 20.1484 180.361 20.4418C179.866 20.7268 179.313 20.8693 178.701 20.8693ZM180.059 17.0219C180.051 16.762 179.979 16.5273 179.845 16.3178C179.711 16.1082 179.535 15.9448 179.317 15.8274C179.099 15.7017 178.856 15.6388 178.588 15.6388C178.353 15.6388 178.131 15.6975 177.922 15.8149C177.712 15.9322 177.532 16.0957 177.381 16.3052C177.238 16.5064 177.146 16.7453 177.104 17.0219H180.059ZM190.354 13.2248H189.901L187.261 20.7812H185.727L188.845 11.9801H191.385L194.516 20.7812H192.982L190.354 13.2248ZM187.437 17.3991H192.567V18.6312H187.437V17.3991ZM196.702 19.8508L196.865 19.8131V23.2959H195.444V14.4947H196.727L196.827 15.2742C197.037 15.0311 197.309 14.8258 197.645 14.6581C197.98 14.4905 198.386 14.4067 198.864 14.4067C199.409 14.4067 199.891 14.5408 200.31 14.809C200.738 15.0772 201.069 15.4544 201.303 15.9406C201.546 16.4184 201.668 16.9842 201.668 17.638C201.668 18.2834 201.546 18.8492 201.303 19.3353C201.069 19.8215 200.742 20.1987 200.323 20.4669C199.904 20.7351 199.417 20.8693 198.864 20.8693C198.361 20.8693 197.925 20.7729 197.557 20.5801C197.188 20.3789 196.903 20.1358 196.702 19.8508ZM200.147 17.638C200.147 17.0596 199.992 16.5902 199.681 16.2298C199.38 15.8693 198.99 15.6891 198.512 15.6891C198.21 15.6891 197.934 15.7646 197.682 15.9154C197.439 16.0663 197.242 16.2843 197.091 16.5692C196.941 16.8542 196.865 17.2105 196.865 17.638C196.865 18.0571 196.941 18.4133 197.091 18.7067C197.242 18.9917 197.439 19.2096 197.682 19.3605C197.934 19.5114 198.21 19.5868 198.512 19.5868C198.99 19.5868 199.38 19.4066 199.681 19.0462C199.992 18.6857 200.147 18.2163 200.147 17.638ZM204.253 19.8508L204.416 19.8131V23.2959H202.996V14.4947H204.278L204.379 15.2742C204.588 15.0311 204.861 14.8258 205.196 14.6581C205.531 14.4905 205.938 14.4067 206.415 14.4067C206.96 14.4067 207.442 14.5408 207.861 14.809C208.289 15.0772 208.62 15.4544 208.855 15.9406C209.098 16.4184 209.219 16.9842 209.219 17.638C209.219 18.2834 209.098 18.8492 208.855 19.3353C208.62 19.8215 208.293 20.1987 207.874 20.4669C207.455 20.7351 206.969 20.8693 206.415 20.8693C205.913 20.8693 205.477 20.7729 205.108 20.5801C204.739 20.3789 204.454 20.1358 204.253 19.8508ZM207.698 17.638C207.698 17.0596 207.543 16.5902 207.233 16.2298C206.931 15.8693 206.541 15.6891 206.063 15.6891C205.762 15.6891 205.485 15.7646 205.234 15.9154C204.991 16.0663 204.794 16.2843 204.643 16.5692C204.492 16.8542 204.416 17.2105 204.416 17.638C204.416 18.0571 204.492 18.4133 204.643 18.7067C204.794 18.9917 204.991 19.2096 205.234 19.3605C205.485 19.5114 205.762 19.5868 206.063 19.5868C206.541 19.5868 206.931 19.4066 207.233 19.0462C207.543 18.6857 207.698 18.2163 207.698 17.638Z" fill="white"/>
<rect x="113.859" y="33.5234" width="14.5775" height="3.64439" rx="1.82219" transform="rotate(-38.521 113.859 33.5234)" fill="url(#paint4_linear_147_491)"/>
<rect x="117.508" y="37.1719" width="18.3298" height="3.64439" rx="1.82219" transform="rotate(-38.521 117.508 37.1719)" fill="url(#paint5_linear_147_491)"/>
<rect x="237.5" y="-1.10938" width="14.5775" height="3.64439" rx="1.82219" transform="rotate(141.479 237.5 -1.10938)" fill="url(#paint6_linear_147_491)"/>
<rect x="233.844" y="-4.75781" width="18.3298" height="3.64439" rx="1.82219" transform="rotate(141.479 233.844 -4.75781)" fill="url(#paint7_linear_147_491)"/>
</g>
<defs>
<linearGradient id="paint0_linear_147_491" x1="2.39815" y1="33.5312" x2="2.39815" y2="37.1756" gradientUnits="userSpaceOnUse">
<stop stop-color="white"/>
<stop offset="1" stop-color="#999999"/>
</linearGradient>
<linearGradient id="paint1_linear_147_491" x1="7.9227" y1="37.1797" x2="7.9227" y2="40.8241" gradientUnits="userSpaceOnUse">
<stop stop-color="white"/>
<stop offset="1" stop-color="#999999"/>
</linearGradient>
<linearGradient id="paint2_linear_147_491" x1="126.039" y1="-1.10156" x2="126.039" y2="2.54282" gradientUnits="userSpaceOnUse">
<stop stop-color="white"/>
<stop offset="1" stop-color="#999999"/>
</linearGradient>
<linearGradient id="paint3_linear_147_491" x1="124.266" y1="-4.75781" x2="124.266" y2="-1.11343" gradientUnits="userSpaceOnUse">
<stop stop-color="white"/>
<stop offset="1" stop-color="#999999"/>
</linearGradient>
<linearGradient id="paint4_linear_147_491" x1="121.148" y1="33.5234" x2="121.148" y2="37.1678" gradientUnits="userSpaceOnUse">
<stop stop-color="white"/>
<stop offset="1" stop-color="#999999"/>
</linearGradient>
<linearGradient id="paint5_linear_147_491" x1="126.673" y1="37.1719" x2="126.673" y2="40.8163" gradientUnits="userSpaceOnUse">
<stop stop-color="white"/>
<stop offset="1" stop-color="#999999"/>
</linearGradient>
<linearGradient id="paint6_linear_147_491" x1="244.789" y1="-1.10938" x2="244.789" y2="2.53501" gradientUnits="userSpaceOnUse">
<stop stop-color="white"/>
<stop offset="1" stop-color="#999999"/>
</linearGradient>
<linearGradient id="paint7_linear_147_491" x1="243.009" y1="-4.75781" x2="243.009" y2="-1.11343" gradientUnits="userSpaceOnUse">
<stop stop-color="white"/>
<stop offset="1" stop-color="#999999"/>
</linearGradient>
<clipPath id="clip0_147_491">
<rect width="115.254" height="33.5284" rx="16.7642" fill="white"/>
</clipPath>
<clipPath id="clip1_147_491">
<rect x="118.75" width="115.254" height="33.5284" rx="16.7642" fill="white"/>
</clipPath>
</defs>
</svg>
