<svg width="305" height="34" viewBox="0 0 305 34" fill="none" xmlns="http://www.w3.org/2000/svg">
<g clip-path="url(#clip0_147_552)">
<rect y="0.234375" width="115.254" height="33.5284" rx="16.7642" fill="#1A1A1A"/>
<path d="M24.6301 12.2144H26.1137V17.822C26.1137 18.2663 26.2018 18.6393 26.3778 18.9411C26.5622 19.2428 26.8095 19.4691 27.1196 19.62C27.4297 19.7625 27.7818 19.8338 28.1757 19.8338C28.5865 19.8338 28.9469 19.7625 29.257 19.62C29.5672 19.4691 29.8103 19.2428 29.9863 18.9411C30.1707 18.6393 30.2629 18.2663 30.2629 17.822V12.2144H31.7465V17.7843C31.7465 18.3459 31.6459 18.8363 31.4448 19.2554C31.252 19.6661 30.9837 20.0098 30.6401 20.2864C30.3048 20.563 29.9234 20.7684 29.4959 20.9025C29.0768 21.0366 28.6326 21.1036 28.1632 21.1036C27.5429 21.1036 26.9645 20.9821 26.4281 20.739C25.8916 20.4959 25.4558 20.1313 25.1205 19.6452C24.7936 19.1506 24.6301 18.5303 24.6301 17.7843V12.2144ZM33.5574 12.2144H35.0536V21.0156H33.5574V12.2144ZM36.8595 12.2144H38.3431V17.822C38.3431 18.2663 38.4311 18.6393 38.6071 18.9411C38.7915 19.2428 39.0388 19.4691 39.3489 19.62C39.6591 19.7625 40.0111 19.8338 40.4051 19.8338C40.8158 19.8338 41.1762 19.7625 41.4864 19.62C41.7965 19.4691 42.0396 19.2428 42.2156 18.9411C42.4 18.6393 42.4922 18.2663 42.4922 17.822V12.2144H43.9759V17.7843C43.9759 18.3459 43.8753 18.8363 43.6741 19.2554C43.4813 19.6661 43.2131 20.0098 42.8694 20.2864C42.5341 20.563 42.1527 20.7684 41.7253 20.9025C41.3062 21.0366 40.8619 21.1036 40.3925 21.1036C39.7722 21.1036 39.1939 20.9821 38.6574 20.739C38.121 20.4959 37.6851 20.1313 37.3498 19.6452C37.0229 19.1506 36.8595 18.5303 36.8595 17.7843V12.2144ZM45.485 12.2144H47.1572L49.5336 15.4206L51.9225 12.2144H53.5821L50.3885 16.615L53.5821 21.0156H51.9225L49.5336 17.8095L47.1572 21.0156H45.485L48.6912 16.615L45.485 12.2144ZM61.7856 12.2144C62.7328 12.2144 63.55 12.3946 64.2374 12.7551C64.9331 13.1155 65.4695 13.631 65.8467 14.3016C66.2323 14.9638 66.4251 15.7475 66.4251 16.6527C66.4251 17.5496 66.2323 18.325 65.8467 18.9788C65.4695 19.6326 64.9331 20.1355 64.2374 20.4876C63.55 20.8396 62.7328 21.0156 61.7856 21.0156H58.6423V12.2144H61.7856ZM61.7856 19.7709C62.7914 19.7709 63.5626 19.4985 64.0991 18.9536C64.6439 18.4004 64.9163 17.6335 64.9163 16.6527C64.9163 15.6637 64.6439 14.8841 64.0991 14.3141C63.5626 13.7442 62.7914 13.4592 61.7856 13.4592H60.1385V19.7709H61.7856ZM70.5675 21.1036C69.9389 21.1036 69.3857 20.9653 68.9079 20.6887C68.4385 20.4121 68.0697 20.0265 67.8014 19.532C67.5416 19.0375 67.4117 18.4675 67.4117 17.822C67.4117 17.2102 67.5416 16.6653 67.8014 16.1875C68.0613 15.7098 68.4217 15.3326 68.8827 15.056C69.3438 14.7793 69.8676 14.641 70.4544 14.641C71.0495 14.641 71.5734 14.771 72.026 15.0308C72.4787 15.2907 72.8307 15.6553 73.0822 16.1247C73.342 16.5857 73.4719 17.1221 73.4719 17.734C73.4719 17.8346 73.4677 17.9436 73.4594 18.0609C73.451 18.1699 73.4384 18.2873 73.4216 18.413H68.9456C68.9875 18.7064 69.0797 18.962 69.2222 19.1799C69.3731 19.3895 69.5617 19.553 69.788 19.6703C70.0143 19.7876 70.2742 19.8463 70.5675 19.8463C70.9196 19.8463 71.2339 19.7751 71.5105 19.6326C71.7955 19.4901 71.9925 19.3015 72.1015 19.0668L73.3462 19.4817C73.0947 19.9846 72.7217 20.3828 72.2272 20.6762C71.7326 20.9611 71.1794 21.1036 70.5675 21.1036ZM71.9254 17.2563C71.9171 16.9964 71.8458 16.7617 71.7117 16.5522C71.5776 16.3426 71.4016 16.1792 71.1836 16.0618C70.9657 15.9361 70.7226 15.8732 70.4544 15.8732C70.2197 15.8732 69.9976 15.9319 69.788 16.0492C69.5785 16.1666 69.3982 16.33 69.2474 16.5396C69.1049 16.7408 69.0127 16.9796 68.9708 17.2563H71.9254ZM75.7165 18.9914C75.7752 19.226 75.8758 19.4063 76.0183 19.532C76.1692 19.6577 76.3326 19.7457 76.5086 19.796C76.6847 19.8379 76.8523 19.8589 77.0116 19.8589C77.3385 19.8589 77.5941 19.796 77.7785 19.6703C77.9713 19.5362 78.0677 19.3685 78.0677 19.1674C78.0677 18.9997 78.0048 18.8698 77.8791 18.7776C77.7534 18.6854 77.5899 18.6142 77.3888 18.5639C77.196 18.5052 76.9948 18.4465 76.7852 18.3878C76.5589 18.3292 76.3158 18.2621 76.056 18.1867C75.8045 18.1112 75.5657 18.0065 75.3393 17.8723C75.113 17.7382 74.9286 17.5664 74.7861 17.3568C74.6436 17.1473 74.5724 16.8874 74.5724 16.5773C74.5724 16.1834 74.6813 15.8439 74.8993 15.5589C75.1172 15.2655 75.4148 15.0392 75.792 14.8799C76.1692 14.7207 76.5925 14.641 77.0619 14.641C77.6235 14.641 78.1096 14.7584 78.5203 14.9931C78.9311 15.2278 79.2286 15.5715 79.413 16.0241L78.1683 16.4264C78.1096 16.3091 78.0216 16.2085 77.9043 16.1247C77.7953 16.0409 77.6612 15.9822 77.5019 15.9487C77.351 15.9067 77.196 15.8858 77.0367 15.8858C76.7685 15.8858 76.5422 15.9403 76.3578 16.0492C76.1734 16.1582 76.0812 16.3133 76.0812 16.5144C76.0812 16.615 76.1105 16.703 76.1692 16.7785C76.2362 16.8539 76.3242 16.9168 76.4332 16.9671C76.5422 17.009 76.6721 17.0509 76.823 17.0928C76.9738 17.1263 77.1331 17.1682 77.3007 17.2185C77.569 17.294 77.833 17.3778 78.0929 17.47C78.3611 17.5538 78.6042 17.6628 78.8221 17.7969C79.0484 17.931 79.2244 18.107 79.3502 18.325C79.4843 18.5429 79.5597 18.8195 79.5765 19.1548C79.5765 19.5152 79.4717 19.8463 79.2622 20.1481C79.0526 20.4415 78.7508 20.6762 78.3569 20.8522C77.9713 21.0198 77.5103 21.1036 76.9738 21.1036C76.3536 21.1036 75.8213 20.9695 75.3771 20.7013C74.9328 20.4331 74.631 20.0014 74.4718 19.4063L75.7165 18.9914ZM81.1148 14.7291H82.5356V21.0156H81.1148V14.7291ZM81.8315 13.7735C81.5716 13.7735 81.3537 13.6855 81.1777 13.5095C81.0017 13.3334 80.9137 13.1239 80.9137 12.8808C80.9137 12.621 81.0017 12.403 81.1777 12.227C81.3537 12.051 81.5716 11.963 81.8315 11.963C82.083 11.963 82.2967 12.051 82.4727 12.227C82.6487 12.403 82.7368 12.621 82.7368 12.8808C82.7368 13.1239 82.6487 13.3334 82.4727 13.5095C82.2967 13.6855 82.083 13.7735 81.8315 13.7735ZM89.0148 14.7291H90.2972V20.0726C90.2972 20.7851 90.1212 21.397 89.7692 21.9083C89.4171 22.428 88.91 22.8262 88.2478 23.1028C87.5856 23.3878 86.7893 23.5303 85.8589 23.5303L85.6452 22.3107C86.7013 22.2855 87.5018 22.0843 88.0466 21.7071C88.5999 21.33 88.8765 20.7893 88.8765 20.0852V20.0726H89.0399C88.8471 20.3576 88.5663 20.6007 88.1975 20.8019C87.8371 21.0031 87.4054 21.1036 86.9025 21.1036C86.3493 21.1036 85.8589 20.9695 85.4314 20.7013C85.004 20.4331 84.6687 20.0559 84.4256 19.5697C84.1909 19.0836 84.0735 18.5178 84.0735 17.8723C84.0735 17.2269 84.1909 16.6611 84.4256 16.175C84.6687 15.6888 85.004 15.3116 85.4314 15.0434C85.8589 14.7752 86.3493 14.641 86.9025 14.641C87.2126 14.641 87.4934 14.683 87.7449 14.7668C88.0047 14.8422 88.2311 14.947 88.4238 15.0811C88.625 15.2068 88.7885 15.3493 88.9142 15.5086L89.0148 14.7291ZM85.5949 17.8723C85.5949 18.4507 85.7458 18.9201 86.0475 19.2805C86.3493 19.641 86.7516 19.8212 87.2545 19.8212C87.5479 19.8212 87.8161 19.7457 88.0592 19.5949C88.3023 19.4356 88.4993 19.2093 88.6502 18.9159C88.801 18.6225 88.8765 18.2747 88.8765 17.8723C88.8765 17.4532 88.801 17.1012 88.6502 16.8162C88.4993 16.5228 88.2981 16.3007 88.0466 16.1498C87.8036 15.9989 87.5395 15.9235 87.2545 15.9235C86.7516 15.9235 86.3493 16.1037 86.0475 16.4642C85.7458 16.8162 85.5949 17.2856 85.5949 17.8723ZM91.9643 14.7291H93.2467L93.3473 15.3451C93.5569 15.1272 93.8041 14.9554 94.0891 14.8296C94.3825 14.7039 94.6968 14.641 95.0321 14.641C95.5267 14.641 95.9499 14.7458 96.302 14.9554C96.6624 15.1565 96.939 15.4583 97.1318 15.8606C97.3246 16.2546 97.421 16.7491 97.421 17.3443V21.0156H96.0002V17.5329C96.0002 17.0048 95.8913 16.6066 95.6733 16.3384C95.4638 16.0702 95.1453 15.9361 94.7178 15.9361C94.2819 15.9361 93.9508 16.0744 93.7245 16.351C93.4982 16.6192 93.385 17.0174 93.385 17.5454V21.0156H91.9643V14.7291Z" fill="white"/>
<rect x="-4.89062" y="33.7656" width="14.5775" height="3.64439" rx="1.82219" transform="rotate(-38.521 -4.89062 33.7656)" fill="url(#paint0_linear_147_552)"/>
<rect x="-1.24219" y="37.4141" width="18.3298" height="3.64439" rx="1.82219" transform="rotate(-38.521 -1.24219 37.4141)" fill="url(#paint1_linear_147_552)"/>
<rect x="118.75" y="-0.867188" width="14.5775" height="3.64439" rx="1.82219" transform="rotate(141.479 118.75 -0.867188)" fill="url(#paint2_linear_147_552)"/>
<rect x="115.102" y="-4.52344" width="18.3298" height="3.64439" rx="1.82219" transform="rotate(141.479 115.102 -4.52344)" fill="url(#paint3_linear_147_552)"/>
</g>
<g clip-path="url(#clip1_147_552)">
<rect x="118.75" width="186" height="34" rx="17" fill="#1A1A1A"/>
<path d="M140.414 20.7812H138.918V11.9801H140.59L143.557 18.8198L146.525 11.9801H148.184V20.7812H146.701V14.8342L144.123 20.7812H142.992L140.414 14.8342V20.7812ZM152.758 20.8693C152.155 20.8693 151.614 20.7393 151.136 20.4795C150.658 20.2113 150.285 19.8383 150.017 19.3605C149.749 18.8743 149.615 18.3043 149.615 17.6505C149.615 16.9884 149.753 16.4142 150.03 15.928C150.306 15.4419 150.688 15.0689 151.174 14.809C151.66 14.5408 152.201 14.4067 152.796 14.4067C153.399 14.4067 153.94 14.5408 154.418 14.809C154.904 15.0689 155.29 15.4419 155.575 15.928C155.86 16.4058 156.002 16.9716 156.002 17.6254C156.002 18.2876 155.855 18.8618 155.562 19.3479C155.277 19.8341 154.887 20.2113 154.393 20.4795C153.907 20.7393 153.362 20.8693 152.758 20.8693ZM152.746 19.5994C153.039 19.5994 153.316 19.5281 153.575 19.3856C153.844 19.2431 154.062 19.0294 154.229 18.7444C154.397 18.451 154.481 18.078 154.481 17.6254C154.481 17.1895 154.401 16.8291 154.242 16.5441C154.083 16.2507 153.873 16.0328 153.613 15.8903C153.353 15.7478 153.073 15.6766 152.771 15.6766C152.477 15.6766 152.205 15.7478 151.954 15.8903C151.71 16.0328 151.513 16.2507 151.363 16.5441C151.212 16.8291 151.136 17.1979 151.136 17.6505C151.136 18.0864 151.208 18.451 151.35 18.7444C151.501 19.0294 151.698 19.2431 151.941 19.3856C152.184 19.5281 152.452 19.5994 152.746 19.5994ZM158.591 15.4251C158.792 15.1401 159.077 14.9012 159.446 14.7084C159.815 14.5073 160.251 14.4067 160.754 14.4067C161.307 14.4067 161.793 14.5408 162.212 14.809C162.631 15.0772 162.958 15.4544 163.193 15.9406C163.436 16.4268 163.557 16.9925 163.557 17.638C163.557 18.2834 163.436 18.8492 163.193 19.3353C162.958 19.8215 162.627 20.1987 162.2 20.4669C161.78 20.7351 161.298 20.8693 160.754 20.8693C160.276 20.8693 159.869 20.7854 159.534 20.6178C159.199 20.4502 158.926 20.2448 158.717 20.0017L158.616 20.7812H157.334V11.7286H158.755V15.4628L158.591 15.4251ZM162.036 17.638C162.036 17.0596 161.881 16.5902 161.571 16.2298C161.269 15.8693 160.879 15.6891 160.402 15.6891C160.1 15.6891 159.823 15.7646 159.572 15.9154C159.329 16.0663 159.132 16.2884 158.981 16.5818C158.83 16.8668 158.755 17.2189 158.755 17.638C158.755 18.0571 158.83 18.4133 158.981 18.7067C159.132 18.9917 159.329 19.2096 159.572 19.3605C159.823 19.5114 160.1 19.5868 160.402 19.5868C160.879 19.5868 161.269 19.4066 161.571 19.0462C161.881 18.6857 162.036 18.2163 162.036 17.638ZM165.012 14.4947H166.433V20.7812H165.012V14.4947ZM165.729 13.5391C165.469 13.5391 165.251 13.4511 165.075 13.2751C164.899 13.0991 164.811 12.8895 164.811 12.6464C164.811 12.3866 164.899 12.1687 165.075 11.9926C165.251 11.8166 165.469 11.7286 165.729 11.7286C165.981 11.7286 166.194 11.8166 166.37 11.9926C166.546 12.1687 166.634 12.3866 166.634 12.6464C166.634 12.8895 166.546 13.0991 166.37 13.2751C166.194 13.4511 165.981 13.5391 165.729 13.5391ZM168.311 11.7286H169.731V20.7812H168.311V11.7286ZM174.209 20.8693C173.58 20.8693 173.027 20.731 172.549 20.4543C172.08 20.1777 171.711 19.7922 171.443 19.2976C171.183 18.8031 171.053 18.2331 171.053 17.5877C171.053 16.9758 171.183 16.4309 171.443 15.9532C171.703 15.4754 172.063 15.0982 172.524 14.8216C172.985 14.545 173.509 14.4067 174.096 14.4067C174.691 14.4067 175.215 14.5366 175.667 14.7964C176.12 15.0563 176.472 15.4209 176.724 15.8903C176.983 16.3513 177.113 16.8878 177.113 17.4997C177.113 17.6002 177.109 17.7092 177.101 17.8266C177.092 17.9355 177.08 18.0529 177.063 18.1786H172.587C172.629 18.472 172.721 18.7276 172.864 18.9456C173.015 19.1551 173.203 19.3186 173.429 19.4359C173.656 19.5533 173.916 19.6119 174.209 19.6119C174.561 19.6119 174.875 19.5407 175.152 19.3982C175.437 19.2557 175.634 19.0671 175.743 18.8324L176.988 19.2473C176.736 19.7503 176.363 20.1484 175.869 20.4418C175.374 20.7268 174.821 20.8693 174.209 20.8693ZM175.567 17.0219C175.558 16.762 175.487 16.5273 175.353 16.3178C175.219 16.1082 175.043 15.9448 174.825 15.8274C174.607 15.7017 174.364 15.6388 174.096 15.6388C173.861 15.6388 173.639 15.6975 173.429 15.8149C173.22 15.9322 173.04 16.0957 172.889 16.3052C172.746 16.5064 172.654 16.7453 172.612 17.0219H175.567ZM185.862 13.2248H185.409L182.769 20.7812H181.235L184.353 11.9801H186.893L190.023 20.7812H188.489L185.862 13.2248ZM182.945 17.3991H188.075V18.6312H182.945V17.3991ZM192.209 19.8508L192.373 19.8131V23.2959H190.952V14.4947H192.235L192.335 15.2742C192.545 15.0311 192.817 14.8258 193.152 14.6581C193.488 14.4905 193.894 14.4067 194.372 14.4067C194.917 14.4067 195.399 14.5408 195.818 14.809C196.245 15.0772 196.577 15.4544 196.811 15.9406C197.054 16.4184 197.176 16.9842 197.176 17.638C197.176 18.2834 197.054 18.8492 196.811 19.3353C196.577 19.8215 196.25 20.1987 195.831 20.4669C195.411 20.7351 194.925 20.8693 194.372 20.8693C193.869 20.8693 193.433 20.7729 193.064 20.5801C192.696 20.3789 192.411 20.1358 192.209 19.8508ZM195.655 17.638C195.655 17.0596 195.499 16.5902 195.189 16.2298C194.888 15.8693 194.498 15.6891 194.02 15.6891C193.718 15.6891 193.442 15.7646 193.19 15.9154C192.947 16.0663 192.75 16.2843 192.599 16.5692C192.448 16.8542 192.373 17.2105 192.373 17.638C192.373 18.0571 192.448 18.4133 192.599 18.7067C192.75 18.9917 192.947 19.2096 193.19 19.3605C193.442 19.5114 193.718 19.5868 194.02 19.5868C194.498 19.5868 194.888 19.4066 195.189 19.0462C195.499 18.6857 195.655 18.2163 195.655 17.638ZM199.761 19.8508L199.924 19.8131V23.2959H198.503V14.4947H199.786L199.886 15.2742C200.096 15.0311 200.368 14.8258 200.704 14.6581C201.039 14.4905 201.446 14.4067 201.923 14.4067C202.468 14.4067 202.95 14.5408 203.369 14.809C203.797 15.0772 204.128 15.4544 204.362 15.9406C204.606 16.4184 204.727 16.9842 204.727 17.638C204.727 18.2834 204.606 18.8492 204.362 19.3353C204.128 19.8215 203.801 20.1987 203.382 20.4669C202.963 20.7351 202.477 20.8693 201.923 20.8693C201.42 20.8693 200.984 20.7729 200.616 20.5801C200.247 20.3789 199.962 20.1358 199.761 19.8508ZM203.206 17.638C203.206 17.0596 203.051 16.5902 202.741 16.2298C202.439 15.8693 202.049 15.6891 201.571 15.6891C201.269 15.6891 200.993 15.7646 200.741 15.9154C200.498 16.0663 200.301 16.2843 200.15 16.5692C200 16.8542 199.924 17.2105 199.924 17.638C199.924 18.0571 200 18.4133 200.15 18.7067C200.301 18.9917 200.498 19.2096 200.741 19.3605C200.993 19.5114 201.269 19.5868 201.571 19.5868C202.049 19.5868 202.439 19.4066 202.741 19.0462C203.051 18.6857 203.206 18.2163 203.206 17.638ZM213.325 20.7812L213.2 20.0143C212.998 20.2825 212.76 20.4879 212.483 20.6304C212.206 20.7729 211.838 20.8441 211.377 20.8441C210.941 20.8441 210.563 20.7729 210.245 20.6304C209.926 20.4795 209.679 20.2741 209.503 20.0143C209.335 19.7461 209.252 19.4359 209.252 19.0839C209.252 18.5558 209.444 18.1157 209.83 17.7637C210.224 17.4033 210.798 17.1811 211.553 17.0973L213.2 16.9213V16.4309C213.2 16.2298 213.112 16.0496 212.936 15.8903C212.76 15.7227 212.479 15.6388 212.093 15.6388C211.758 15.6388 211.465 15.7227 211.213 15.8903C210.97 16.0496 210.807 16.2926 210.723 16.6195L209.491 16.1669C209.65 15.6137 209.964 15.182 210.434 14.8719C210.911 14.5617 211.49 14.4067 212.169 14.4067C212.99 14.4067 213.606 14.612 214.017 15.0228C214.428 15.4335 214.633 15.9574 214.633 16.5944V20.7812H213.325ZM213.2 18.0152L211.691 18.2038C211.372 18.2457 211.133 18.3379 210.974 18.4804C210.815 18.6145 210.735 18.7863 210.735 18.9959C210.735 19.1887 210.811 19.3563 210.962 19.4988C211.121 19.6329 211.335 19.7 211.603 19.7C211.947 19.7 212.236 19.6371 212.47 19.5114C212.713 19.3856 212.894 19.2054 213.011 18.9707C213.137 18.736 213.2 18.4468 213.2 18.1032V18.0152ZM216.209 14.4947H217.491L217.592 15.1108C217.802 14.8928 218.049 14.721 218.334 14.5953C218.627 14.4695 218.941 14.4067 219.277 14.4067C219.771 14.4067 220.195 14.5114 220.547 14.721C220.907 14.9222 221.184 15.2239 221.376 15.6263C221.569 16.0202 221.666 16.5148 221.666 17.1099V20.7812H220.245V17.2985C220.245 16.7704 220.136 16.3723 219.918 16.104C219.708 15.8358 219.39 15.7017 218.962 15.7017C218.527 15.7017 218.195 15.84 217.969 16.1166C217.743 16.3848 217.63 16.783 217.63 17.3111V20.7812H216.209V14.4947ZM227.859 15.4251L227.696 15.4628V11.7286H229.116V20.7812H227.834L227.733 20.0017C227.515 20.2448 227.239 20.4502 226.904 20.6178C226.568 20.7854 226.17 20.8693 225.709 20.8693C225.148 20.8693 224.653 20.7351 224.225 20.4669C223.806 20.1987 223.479 19.8215 223.245 19.3353C223.01 18.8492 222.893 18.2834 222.893 17.638C222.893 16.9925 223.01 16.4268 223.245 15.9406C223.479 15.4544 223.806 15.0772 224.225 14.809C224.653 14.5408 225.148 14.4067 225.709 14.4067C226.204 14.4067 226.635 14.5073 227.004 14.7084C227.373 14.9012 227.658 15.1401 227.859 15.4251ZM224.414 17.638C224.414 18.2163 224.565 18.6857 224.867 19.0462C225.168 19.4066 225.562 19.5868 226.049 19.5868C226.342 19.5868 226.61 19.5114 226.853 19.3605C227.105 19.2096 227.306 18.9917 227.457 18.7067C227.616 18.4133 227.696 18.0571 227.696 17.638C227.696 17.2189 227.616 16.8668 227.457 16.5818C227.306 16.2884 227.105 16.0663 226.853 15.9154C226.61 15.7646 226.342 15.6891 226.049 15.6891C225.562 15.6891 225.168 15.8693 224.867 16.2298C224.565 16.5902 224.414 17.0596 224.414 17.638ZM237.979 20.7812H236.294L233.767 11.9801H235.376L237.136 19.0713L239.01 11.9801H240.682L242.53 19.0462L244.316 11.9801H245.9L243.398 20.7812H241.688L239.84 14.2055L237.979 20.7812ZM249.329 20.8693C248.7 20.8693 248.147 20.731 247.669 20.4543C247.199 20.1777 246.831 19.7922 246.562 19.2976C246.303 18.8031 246.173 18.2331 246.173 17.5877C246.173 16.9758 246.303 16.4309 246.562 15.9532C246.822 15.4754 247.183 15.0982 247.644 14.8216C248.105 14.545 248.629 14.4067 249.215 14.4067C249.81 14.4067 250.334 14.5366 250.787 14.7964C251.24 15.0563 251.592 15.4209 251.843 15.8903C252.103 16.3513 252.233 16.8878 252.233 17.4997C252.233 17.6002 252.229 17.7092 252.22 17.8266C252.212 17.9355 252.199 18.0529 252.183 18.1786H247.707C247.748 18.472 247.841 18.7276 247.983 18.9456C248.134 19.1551 248.323 19.3186 248.549 19.4359C248.775 19.5533 249.035 19.6119 249.329 19.6119C249.681 19.6119 249.995 19.5407 250.272 19.3982C250.556 19.2557 250.753 19.0671 250.862 18.8324L252.107 19.2473C251.856 19.7503 251.483 20.1484 250.988 20.4418C250.494 20.7268 249.94 20.8693 249.329 20.8693ZM250.686 17.0219C250.678 16.762 250.607 16.5273 250.473 16.3178C250.339 16.1082 250.163 15.9448 249.945 15.8274C249.727 15.7017 249.484 15.6388 249.215 15.6388C248.981 15.6388 248.759 15.6975 248.549 15.8149C248.339 15.9322 248.159 16.0957 248.008 16.3052C247.866 16.5064 247.774 16.7453 247.732 17.0219H250.686ZM254.83 15.4251C255.031 15.1401 255.316 14.9012 255.685 14.7084C256.053 14.5073 256.489 14.4067 256.992 14.4067C257.545 14.4067 258.032 14.5408 258.451 14.809C258.87 15.0772 259.197 15.4544 259.431 15.9406C259.674 16.4268 259.796 16.9925 259.796 17.638C259.796 18.2834 259.674 18.8492 259.431 19.3353C259.197 19.8215 258.866 20.1987 258.438 20.4669C258.019 20.7351 257.537 20.8693 256.992 20.8693C256.514 20.8693 256.108 20.7854 255.773 20.6178C255.437 20.4502 255.165 20.2448 254.955 20.0017L254.855 20.7812H253.572V11.7286H254.993V15.4628L254.83 15.4251ZM258.275 17.638C258.275 17.0596 258.12 16.5902 257.809 16.2298C257.508 15.8693 257.118 15.6891 256.64 15.6891C256.338 15.6891 256.062 15.7646 255.81 15.9154C255.567 16.0663 255.37 16.2884 255.219 16.5818C255.068 16.8668 254.993 17.2189 254.993 17.638C254.993 18.0571 255.068 18.4133 255.219 18.7067C255.37 18.9917 255.567 19.2096 255.81 19.3605C256.062 19.5114 256.338 19.5868 256.64 19.5868C257.118 19.5868 257.508 19.4066 257.809 19.0462C258.12 18.6857 258.275 18.2163 258.275 17.638ZM261.955 18.757C262.014 18.9917 262.114 19.1719 262.257 19.2976C262.408 19.4234 262.571 19.5114 262.747 19.5617C262.923 19.6036 263.091 19.6245 263.25 19.6245C263.577 19.6245 263.833 19.5617 264.017 19.4359C264.21 19.3018 264.306 19.1342 264.306 18.933C264.306 18.7654 264.243 18.6354 264.118 18.5432C263.992 18.451 263.828 18.3798 263.627 18.3295C263.435 18.2708 263.233 18.2121 263.024 18.1535C262.797 18.0948 262.554 18.0277 262.295 17.9523C262.043 17.8769 261.804 17.7721 261.578 17.638C261.352 17.5039 261.167 17.332 261.025 17.1225C260.882 16.9129 260.811 16.6531 260.811 16.3429C260.811 15.949 260.92 15.6095 261.138 15.3245C261.356 15.0311 261.653 14.8048 262.031 14.6456C262.408 14.4863 262.831 14.4067 263.3 14.4067C263.862 14.4067 264.348 14.524 264.759 14.7587C265.17 14.9934 265.467 15.3371 265.652 15.7897L264.407 16.1921C264.348 16.0747 264.26 15.9741 264.143 15.8903C264.034 15.8065 263.9 15.7478 263.74 15.7143C263.59 15.6724 263.435 15.6514 263.275 15.6514C263.007 15.6514 262.781 15.7059 262.596 15.8149C262.412 15.9238 262.32 16.0789 262.32 16.2801C262.32 16.3807 262.349 16.4687 262.408 16.5441C262.475 16.6195 262.563 16.6824 262.672 16.7327C262.781 16.7746 262.911 16.8165 263.062 16.8584C263.212 16.892 263.372 16.9339 263.539 16.9842C263.808 17.0596 264.072 17.1434 264.331 17.2356C264.6 17.3194 264.843 17.4284 265.061 17.5625C265.287 17.6966 265.463 17.8727 265.589 18.0906C265.723 18.3085 265.798 18.5851 265.815 18.9204C265.815 19.2809 265.71 19.6119 265.501 19.9137C265.291 20.2071 264.989 20.4418 264.595 20.6178C264.21 20.7854 263.749 20.8693 263.212 20.8693C262.592 20.8693 262.06 20.7351 261.616 20.4669C261.171 20.1987 260.87 19.767 260.71 19.1719L261.955 18.757ZM267.353 14.4947H268.774V20.7812H267.353V14.4947ZM268.07 13.5391C267.81 13.5391 267.592 13.4511 267.416 13.2751C267.24 13.0991 267.152 12.8895 267.152 12.6464C267.152 12.3866 267.24 12.1687 267.416 11.9926C267.592 11.8166 267.81 11.7286 268.07 11.7286C268.322 11.7286 268.535 11.8166 268.711 11.9926C268.887 12.1687 268.975 12.3866 268.975 12.6464C268.975 12.8895 268.887 13.0991 268.711 13.2751C268.535 13.4511 268.322 13.5391 268.07 13.5391ZM271.054 14.4947V12.7344H272.5V14.4947H273.971V15.7394H272.5V18.5307C272.5 18.9079 272.571 19.1719 272.714 19.3228C272.856 19.4653 273.04 19.5449 273.267 19.5617C273.501 19.57 273.736 19.5575 273.971 19.5239V20.731C273.61 20.8064 273.254 20.8274 272.902 20.7938C272.558 20.7687 272.248 20.6765 271.972 20.5172C271.695 20.3496 271.473 20.1065 271.305 19.788C271.138 19.4695 271.054 19.0503 271.054 18.5307V15.7394H270.174V14.4947H271.054ZM278.011 20.8693C277.382 20.8693 276.829 20.731 276.351 20.4543C275.882 20.1777 275.513 19.7922 275.245 19.2976C274.985 18.8031 274.855 18.2331 274.855 17.5877C274.855 16.9758 274.985 16.4309 275.245 15.9532C275.505 15.4754 275.865 15.0982 276.326 14.8216C276.787 14.545 277.311 14.4067 277.898 14.4067C278.493 14.4067 279.017 14.5366 279.469 14.7964C279.922 15.0563 280.274 15.4209 280.526 15.8903C280.785 16.3513 280.915 16.8878 280.915 17.4997C280.915 17.6002 280.911 17.7092 280.903 17.8266C280.894 17.9355 280.882 18.0529 280.865 18.1786H276.389C276.431 18.472 276.523 18.7276 276.666 18.9456C276.817 19.1551 277.005 19.3186 277.231 19.4359C277.458 19.5533 277.718 19.6119 278.011 19.6119C278.363 19.6119 278.677 19.5407 278.954 19.3982C279.239 19.2557 279.436 19.0671 279.545 18.8324L280.79 19.2473C280.538 19.7503 280.165 20.1484 279.671 20.4418C279.176 20.7268 278.623 20.8693 278.011 20.8693ZM279.369 17.0219C279.361 16.762 279.289 16.5273 279.155 16.3178C279.021 16.1082 278.845 15.9448 278.627 15.8274C278.409 15.7017 278.166 15.6388 277.898 15.6388C277.663 15.6388 277.441 15.6975 277.231 15.8149C277.022 15.9322 276.842 16.0957 276.691 16.3052C276.548 16.5064 276.456 16.7453 276.414 17.0219H279.369Z" fill="white"/>
<rect x="113.859" y="33.5234" width="14.5775" height="3.64439" rx="1.82219" transform="rotate(-38.521 113.859 33.5234)" fill="url(#paint4_linear_147_552)"/>
<rect x="117.508" y="37.1719" width="18.3298" height="3.64439" rx="1.82219" transform="rotate(-38.521 117.508 37.1719)" fill="url(#paint5_linear_147_552)"/>
<rect x="237.5" y="-1.10938" width="14.5775" height="3.64439" rx="1.82219" transform="rotate(141.479 237.5 -1.10938)" fill="url(#paint6_linear_147_552)"/>
<rect x="233.844" y="-4.75781" width="18.3298" height="3.64439" rx="1.82219" transform="rotate(141.479 233.844 -4.75781)" fill="url(#paint7_linear_147_552)"/>
</g>
<defs>
<linearGradient id="paint0_linear_147_552" x1="2.39815" y1="33.7656" x2="2.39815" y2="37.41" gradientUnits="userSpaceOnUse">
<stop stop-color="white"/>
<stop offset="1" stop-color="#999999"/>
</linearGradient>
<linearGradient id="paint1_linear_147_552" x1="7.9227" y1="37.4141" x2="7.9227" y2="41.0584" gradientUnits="userSpaceOnUse">
<stop stop-color="white"/>
<stop offset="1" stop-color="#999999"/>
</linearGradient>
<linearGradient id="paint2_linear_147_552" x1="126.039" y1="-0.867188" x2="126.039" y2="2.7772" gradientUnits="userSpaceOnUse">
<stop stop-color="white"/>
<stop offset="1" stop-color="#999999"/>
</linearGradient>
<linearGradient id="paint3_linear_147_552" x1="124.266" y1="-4.52344" x2="124.266" y2="-0.879051" gradientUnits="userSpaceOnUse">
<stop stop-color="white"/>
<stop offset="1" stop-color="#999999"/>
</linearGradient>
<linearGradient id="paint4_linear_147_552" x1="121.148" y1="33.5234" x2="121.148" y2="37.1678" gradientUnits="userSpaceOnUse">
<stop stop-color="white"/>
<stop offset="1" stop-color="#999999"/>
</linearGradient>
<linearGradient id="paint5_linear_147_552" x1="126.673" y1="37.1719" x2="126.673" y2="40.8163" gradientUnits="userSpaceOnUse">
<stop stop-color="white"/>
<stop offset="1" stop-color="#999999"/>
</linearGradient>
<linearGradient id="paint6_linear_147_552" x1="244.789" y1="-1.10938" x2="244.789" y2="2.53501" gradientUnits="userSpaceOnUse">
<stop stop-color="white"/>
<stop offset="1" stop-color="#999999"/>
</linearGradient>
<linearGradient id="paint7_linear_147_552" x1="243.009" y1="-4.75781" x2="243.009" y2="-1.11343" gradientUnits="userSpaceOnUse">
<stop stop-color="white"/>
<stop offset="1" stop-color="#999999"/>
</linearGradient>
<clipPath id="clip0_147_552">
<rect y="0.234375" width="115.254" height="33.5284" rx="16.7642" fill="white"/>
</clipPath>
<clipPath id="clip1_147_552">
<rect x="118.75" width="186" height="34" rx="17" fill="white"/>
</clipPath>
</defs>
</svg>
