<svg width="234" height="34" viewBox="0 0 234 34" fill="none" xmlns="http://www.w3.org/2000/svg">
<g clip-path="url(#clip0_147_522)">
<rect width="115.254" height="33.5284" rx="16.7642" fill="#1A1A1A"/>
<path d="M24.6301 11.9801H26.1137V17.5877C26.1137 18.0319 26.2018 18.4049 26.3778 18.7067C26.5622 19.0084 26.8095 19.2348 27.1196 19.3856C27.4297 19.5281 27.7818 19.5994 28.1757 19.5994C28.5865 19.5994 28.9469 19.5281 29.257 19.3856C29.5672 19.2348 29.8103 19.0084 29.9863 18.7067C30.1707 18.4049 30.2629 18.0319 30.2629 17.5877V11.9801H31.7465V17.55C31.7465 18.1116 31.6459 18.6019 31.4448 19.021C31.252 19.4317 30.9837 19.7754 30.6401 20.052C30.3048 20.3286 29.9234 20.534 29.4959 20.6681C29.0768 20.8022 28.6326 20.8693 28.1632 20.8693C27.5429 20.8693 26.9645 20.7477 26.4281 20.5046C25.8916 20.2616 25.4558 19.8969 25.1205 19.4108C24.7936 18.9162 24.6301 18.296 24.6301 17.55V11.9801ZM33.5574 11.9801H35.0536V20.7812H33.5574V11.9801ZM36.8595 11.9801H38.3431V17.5877C38.3431 18.0319 38.4311 18.4049 38.6071 18.7067C38.7915 19.0084 39.0388 19.2348 39.3489 19.3856C39.6591 19.5281 40.0111 19.5994 40.4051 19.5994C40.8158 19.5994 41.1762 19.5281 41.4864 19.3856C41.7965 19.2348 42.0396 19.0084 42.2156 18.7067C42.4 18.4049 42.4922 18.0319 42.4922 17.5877V11.9801H43.9759V17.55C43.9759 18.1116 43.8753 18.6019 43.6741 19.021C43.4813 19.4317 43.2131 19.7754 42.8694 20.052C42.5341 20.3286 42.1527 20.534 41.7253 20.6681C41.3062 20.8022 40.8619 20.8693 40.3925 20.8693C39.7722 20.8693 39.1939 20.7477 38.6574 20.5046C38.121 20.2616 37.6851 19.8969 37.3498 19.4108C37.0229 18.9162 36.8595 18.296 36.8595 17.55V11.9801ZM45.485 11.9801H47.1572L49.5336 15.1862L51.9225 11.9801H53.5821L50.3885 16.3807L53.5821 20.7812H51.9225L49.5336 17.5751L47.1572 20.7812H45.485L48.6912 16.3807L45.485 11.9801ZM61.7856 11.9801C62.7328 11.9801 63.55 12.1603 64.2374 12.5207C64.9331 12.8811 65.4695 13.3966 65.8467 14.0672C66.2323 14.7294 66.4251 15.5131 66.4251 16.4184C66.4251 17.3153 66.2323 18.0906 65.8467 18.7444C65.4695 19.3982 64.9331 19.9011 64.2374 20.2532C63.55 20.6052 62.7328 20.7812 61.7856 20.7812H58.6423V11.9801H61.7856ZM61.7856 19.5365C62.7914 19.5365 63.5626 19.2641 64.0991 18.7193C64.6439 18.166 64.9163 17.3991 64.9163 16.4184C64.9163 15.4293 64.6439 14.6498 64.0991 14.0798C63.5626 13.5098 62.7914 13.2248 61.7856 13.2248H60.1385V19.5365H61.7856ZM70.5675 20.8693C69.9389 20.8693 69.3857 20.731 68.9079 20.4543C68.4385 20.1777 68.0697 19.7922 67.8014 19.2976C67.5416 18.8031 67.4117 18.2331 67.4117 17.5877C67.4117 16.9758 67.5416 16.4309 67.8014 15.9532C68.0613 15.4754 68.4217 15.0982 68.8827 14.8216C69.3438 14.545 69.8676 14.4067 70.4544 14.4067C71.0495 14.4067 71.5734 14.5366 72.026 14.7964C72.4787 15.0563 72.8307 15.4209 73.0822 15.8903C73.342 16.3513 73.4719 16.8878 73.4719 17.4997C73.4719 17.6002 73.4677 17.7092 73.4594 17.8266C73.451 17.9355 73.4384 18.0529 73.4216 18.1786H68.9456C68.9875 18.472 69.0797 18.7276 69.2222 18.9456C69.3731 19.1551 69.5617 19.3186 69.788 19.4359C70.0143 19.5533 70.2742 19.6119 70.5675 19.6119C70.9196 19.6119 71.2339 19.5407 71.5105 19.3982C71.7955 19.2557 71.9925 19.0671 72.1015 18.8324L73.3462 19.2473C73.0947 19.7503 72.7217 20.1484 72.2272 20.4418C71.7326 20.7268 71.1794 20.8693 70.5675 20.8693ZM71.9254 17.0219C71.9171 16.762 71.8458 16.5273 71.7117 16.3178C71.5776 16.1082 71.4016 15.9448 71.1836 15.8274C70.9657 15.7017 70.7226 15.6388 70.4544 15.6388C70.2197 15.6388 69.9976 15.6975 69.788 15.8149C69.5785 15.9322 69.3982 16.0957 69.2474 16.3052C69.1049 16.5064 69.0127 16.7453 68.9708 17.0219H71.9254ZM75.7165 18.757C75.7752 18.9917 75.8758 19.1719 76.0183 19.2976C76.1692 19.4234 76.3326 19.5114 76.5086 19.5617C76.6847 19.6036 76.8523 19.6245 77.0116 19.6245C77.3385 19.6245 77.5941 19.5617 77.7785 19.4359C77.9713 19.3018 78.0677 19.1342 78.0677 18.933C78.0677 18.7654 78.0048 18.6354 77.8791 18.5432C77.7534 18.451 77.5899 18.3798 77.3888 18.3295C77.196 18.2708 76.9948 18.2121 76.7852 18.1535C76.5589 18.0948 76.3158 18.0277 76.056 17.9523C75.8045 17.8769 75.5657 17.7721 75.3393 17.638C75.113 17.5039 74.9286 17.332 74.7861 17.1225C74.6436 16.9129 74.5724 16.6531 74.5724 16.3429C74.5724 15.949 74.6813 15.6095 74.8993 15.3245C75.1172 15.0311 75.4148 14.8048 75.792 14.6456C76.1692 14.4863 76.5925 14.4067 77.0619 14.4067C77.6235 14.4067 78.1096 14.524 78.5203 14.7587C78.9311 14.9934 79.2286 15.3371 79.413 15.7897L78.1683 16.1921C78.1096 16.0747 78.0216 15.9741 77.9043 15.8903C77.7953 15.8065 77.6612 15.7478 77.5019 15.7143C77.351 15.6724 77.196 15.6514 77.0367 15.6514C76.7685 15.6514 76.5422 15.7059 76.3578 15.8149C76.1734 15.9238 76.0812 16.0789 76.0812 16.2801C76.0812 16.3807 76.1105 16.4687 76.1692 16.5441C76.2362 16.6195 76.3242 16.6824 76.4332 16.7327C76.5422 16.7746 76.6721 16.8165 76.823 16.8584C76.9738 16.892 77.1331 16.9339 77.3007 16.9842C77.569 17.0596 77.833 17.1434 78.0929 17.2356C78.3611 17.3194 78.6042 17.4284 78.8221 17.5625C79.0484 17.6966 79.2244 17.8727 79.3502 18.0906C79.4843 18.3085 79.5597 18.5851 79.5765 18.9204C79.5765 19.2809 79.4717 19.6119 79.2622 19.9137C79.0526 20.2071 78.7508 20.4418 78.3569 20.6178C77.9713 20.7854 77.5103 20.8693 76.9738 20.8693C76.3536 20.8693 75.8213 20.7351 75.3771 20.4669C74.9328 20.1987 74.631 19.767 74.4718 19.1719L75.7165 18.757ZM81.1148 14.4947H82.5356V20.7812H81.1148V14.4947ZM81.8315 13.5391C81.5716 13.5391 81.3537 13.4511 81.1777 13.2751C81.0017 13.0991 80.9137 12.8895 80.9137 12.6464C80.9137 12.3866 81.0017 12.1687 81.1777 11.9926C81.3537 11.8166 81.5716 11.7286 81.8315 11.7286C82.083 11.7286 82.2967 11.8166 82.4727 11.9926C82.6487 12.1687 82.7368 12.3866 82.7368 12.6464C82.7368 12.8895 82.6487 13.0991 82.4727 13.2751C82.2967 13.4511 82.083 13.5391 81.8315 13.5391ZM89.0148 14.4947H90.2972V19.8383C90.2972 20.5507 90.1212 21.1626 89.7692 21.6739C89.4171 22.1936 88.91 22.5918 88.2478 22.8684C87.5856 23.1534 86.7893 23.2959 85.8589 23.2959L85.6452 22.0763C86.7013 22.0511 87.5018 21.85 88.0466 21.4728C88.5999 21.0956 88.8765 20.5549 88.8765 19.8508V19.8383H89.0399C88.8471 20.1233 88.5663 20.3663 88.1975 20.5675C87.8371 20.7687 87.4054 20.8693 86.9025 20.8693C86.3493 20.8693 85.8589 20.7351 85.4314 20.4669C85.004 20.1987 84.6687 19.8215 84.4256 19.3353C84.1909 18.8492 84.0735 18.2834 84.0735 17.638C84.0735 16.9925 84.1909 16.4268 84.4256 15.9406C84.6687 15.4544 85.004 15.0772 85.4314 14.809C85.8589 14.5408 86.3493 14.4067 86.9025 14.4067C87.2126 14.4067 87.4934 14.4486 87.7449 14.5324C88.0047 14.6078 88.2311 14.7126 88.4238 14.8467C88.625 14.9725 88.7885 15.115 88.9142 15.2742L89.0148 14.4947ZM85.5949 17.638C85.5949 18.2163 85.7458 18.6857 86.0475 19.0462C86.3493 19.4066 86.7516 19.5868 87.2545 19.5868C87.5479 19.5868 87.8161 19.5114 88.0592 19.3605C88.3023 19.2012 88.4993 18.9749 88.6502 18.6815C88.801 18.3882 88.8765 18.0403 88.8765 17.638C88.8765 17.2189 88.801 16.8668 88.6502 16.5818C88.4993 16.2884 88.2981 16.0663 88.0466 15.9154C87.8036 15.7646 87.5395 15.6891 87.2545 15.6891C86.7516 15.6891 86.3493 15.8693 86.0475 16.2298C85.7458 16.5818 85.5949 17.0512 85.5949 17.638ZM91.9643 14.4947H93.2467L93.3473 15.1108C93.5569 14.8928 93.8041 14.721 94.0891 14.5953C94.3825 14.4695 94.6968 14.4067 95.0321 14.4067C95.5267 14.4067 95.9499 14.5114 96.302 14.721C96.6624 14.9222 96.939 15.2239 97.1318 15.6263C97.3246 16.0202 97.421 16.5148 97.421 17.1099V20.7812H96.0002V17.2985C96.0002 16.7704 95.8913 16.3723 95.6733 16.104C95.4638 15.8358 95.1453 15.7017 94.7178 15.7017C94.2819 15.7017 93.9508 15.84 93.7245 16.1166C93.4982 16.3848 93.385 16.783 93.385 17.3111V20.7812H91.9643V14.4947Z" fill="white"/>
<rect x="-4.89062" y="33.5312" width="14.5775" height="3.64439" rx="1.82219" transform="rotate(-38.521 -4.89062 33.5312)" fill="url(#paint0_linear_147_522)"/>
<rect x="-1.24219" y="37.1797" width="18.3298" height="3.64439" rx="1.82219" transform="rotate(-38.521 -1.24219 37.1797)" fill="url(#paint1_linear_147_522)"/>
<rect x="118.75" y="-1.10156" width="14.5775" height="3.64439" rx="1.82219" transform="rotate(141.479 118.75 -1.10156)" fill="url(#paint2_linear_147_522)"/>
<rect x="115.102" y="-4.75781" width="18.3298" height="3.64439" rx="1.82219" transform="rotate(141.479 115.102 -4.75781)" fill="url(#paint3_linear_147_522)"/>
</g>
<g clip-path="url(#clip1_147_522)">
<rect x="118.75" width="115.254" height="33.5284" rx="16.7642" fill="#1A1A1A"/>
<path d="M153.514 21H151.829L149.302 12.1988H150.911L152.671 19.2901L154.545 12.1988H156.217L158.065 19.2649L159.851 12.1988H161.435L158.933 21H157.223L155.375 14.4243L153.514 21ZM164.864 21.088C164.235 21.088 163.682 20.9497 163.204 20.6731C162.735 20.3965 162.366 20.0109 162.097 19.5164C161.838 19.0218 161.708 18.4518 161.708 17.8064C161.708 17.1945 161.838 16.6497 162.097 16.1719C162.357 15.6941 162.718 15.3169 163.179 15.0403C163.64 14.7637 164.164 14.6254 164.75 14.6254C165.346 14.6254 165.869 14.7553 166.322 15.0152C166.775 15.275 167.127 15.6397 167.378 16.1091C167.638 16.5701 167.768 17.1065 167.768 17.7184C167.768 17.819 167.764 17.928 167.755 18.0453C167.747 18.1543 167.734 18.2716 167.718 18.3974H163.242C163.284 18.6907 163.376 18.9464 163.518 19.1643C163.669 19.3739 163.858 19.5373 164.084 19.6547C164.31 19.772 164.57 19.8307 164.864 19.8307C165.216 19.8307 165.53 19.7595 165.807 19.617C166.092 19.4745 166.289 19.2859 166.397 19.0512L167.642 19.4661C167.391 19.969 167.018 20.3672 166.523 20.6605C166.029 20.9455 165.475 21.088 164.864 21.088ZM166.221 17.2406C166.213 16.9808 166.142 16.7461 166.008 16.5365C165.874 16.327 165.698 16.1635 165.48 16.0462C165.262 15.9205 165.019 15.8576 164.75 15.8576C164.516 15.8576 164.294 15.9163 164.084 16.0336C163.874 16.151 163.694 16.3144 163.543 16.524C163.401 16.7251 163.309 16.964 163.267 17.2406H166.221ZM170.365 15.6438C170.566 15.3589 170.851 15.12 171.22 14.9272C171.588 14.726 172.024 14.6254 172.527 14.6254C173.08 14.6254 173.567 14.7595 173.986 15.0278C174.405 15.296 174.732 15.6732 174.966 16.1593C175.209 16.6455 175.331 17.2113 175.331 17.8567C175.331 18.5021 175.209 19.0679 174.966 19.5541C174.732 20.0403 174.401 20.4174 173.973 20.6857C173.554 20.9539 173.072 21.088 172.527 21.088C172.049 21.088 171.643 21.0042 171.308 20.8365C170.972 20.6689 170.7 20.4635 170.49 20.2205L170.39 21H169.107V11.9473H170.528V15.6816L170.365 15.6438ZM173.81 17.8567C173.81 17.2784 173.655 16.809 173.344 16.4485C173.043 16.0881 172.653 15.9079 172.175 15.9079C171.873 15.9079 171.597 15.9833 171.345 16.1342C171.102 16.2851 170.905 16.5072 170.754 16.8006C170.603 17.0856 170.528 17.4376 170.528 17.8567C170.528 18.2758 170.603 18.6321 170.754 18.9254C170.905 19.2104 171.102 19.4284 171.345 19.5792C171.597 19.7301 171.873 19.8056 172.175 19.8056C172.653 19.8056 173.043 19.6253 173.344 19.2649C173.655 18.9045 173.81 18.4351 173.81 17.8567ZM183.994 13.4435H183.541L180.901 21H179.367L182.485 12.1988H185.025L188.156 21H186.622L183.994 13.4435ZM181.077 17.6178H186.207V18.85H181.077V17.6178ZM190.342 20.0696L190.505 20.0319V23.5146H189.084V14.7134H190.367L190.467 15.493C190.677 15.2499 190.949 15.0445 191.285 14.8769C191.62 14.7092 192.026 14.6254 192.504 14.6254C193.049 14.6254 193.531 14.7595 193.95 15.0278C194.378 15.296 194.709 15.6732 194.943 16.1593C195.186 16.6371 195.308 17.2029 195.308 17.8567C195.308 18.5021 195.186 19.0679 194.943 19.5541C194.709 20.0403 194.382 20.4174 193.963 20.6857C193.544 20.9539 193.057 21.088 192.504 21.088C192.001 21.088 191.565 20.9916 191.197 20.7988C190.828 20.5977 190.543 20.3546 190.342 20.0696ZM193.787 17.8567C193.787 17.2784 193.632 16.809 193.321 16.4485C193.02 16.0881 192.63 15.9079 192.152 15.9079C191.85 15.9079 191.574 15.9833 191.322 16.1342C191.079 16.2851 190.882 16.503 190.731 16.788C190.581 17.073 190.505 17.4292 190.505 17.8567C190.505 18.2758 190.581 18.6321 190.731 18.9254C190.882 19.2104 191.079 19.4284 191.322 19.5792C191.574 19.7301 191.85 19.8056 192.152 19.8056C192.63 19.8056 193.02 19.6253 193.321 19.2649C193.632 18.9045 193.787 18.4351 193.787 17.8567ZM197.893 20.0696L198.056 20.0319V23.5146H196.636V14.7134H197.918L198.019 15.493C198.228 15.2499 198.501 15.0445 198.836 14.8769C199.171 14.7092 199.578 14.6254 200.055 14.6254C200.6 14.6254 201.082 14.7595 201.501 15.0278C201.929 15.296 202.26 15.6732 202.495 16.1593C202.738 16.6371 202.859 17.2029 202.859 17.8567C202.859 18.5021 202.738 19.0679 202.495 19.5541C202.26 20.0403 201.933 20.4174 201.514 20.6857C201.095 20.9539 200.609 21.088 200.055 21.088C199.553 21.088 199.117 20.9916 198.748 20.7988C198.379 20.5977 198.094 20.3546 197.893 20.0696ZM201.338 17.8567C201.338 17.2784 201.183 16.809 200.873 16.4485C200.571 16.0881 200.181 15.9079 199.703 15.9079C199.402 15.9079 199.125 15.9833 198.874 16.1342C198.631 16.2851 198.434 16.503 198.283 16.788C198.132 17.073 198.056 17.4292 198.056 17.8567C198.056 18.2758 198.132 18.6321 198.283 18.9254C198.434 19.2104 198.631 19.4284 198.874 19.5792C199.125 19.7301 199.402 19.8056 199.703 19.8056C200.181 19.8056 200.571 19.6253 200.873 19.2649C201.183 18.9045 201.338 18.4351 201.338 17.8567Z" fill="white"/>
<rect x="113.859" y="33.5234" width="14.5775" height="3.64439" rx="1.82219" transform="rotate(-38.521 113.859 33.5234)" fill="url(#paint4_linear_147_522)"/>
<rect x="117.508" y="37.1719" width="18.3298" height="3.64439" rx="1.82219" transform="rotate(-38.521 117.508 37.1719)" fill="url(#paint5_linear_147_522)"/>
<rect x="237.5" y="-1.10938" width="14.5775" height="3.64439" rx="1.82219" transform="rotate(141.479 237.5 -1.10938)" fill="url(#paint6_linear_147_522)"/>
<rect x="233.844" y="-4.75781" width="18.3298" height="3.64439" rx="1.82219" transform="rotate(141.479 233.844 -4.75781)" fill="url(#paint7_linear_147_522)"/>
</g>
<defs>
<linearGradient id="paint0_linear_147_522" x1="2.39815" y1="33.5312" x2="2.39815" y2="37.1756" gradientUnits="userSpaceOnUse">
<stop stop-color="white"/>
<stop offset="1" stop-color="#999999"/>
</linearGradient>
<linearGradient id="paint1_linear_147_522" x1="7.9227" y1="37.1797" x2="7.9227" y2="40.8241" gradientUnits="userSpaceOnUse">
<stop stop-color="white"/>
<stop offset="1" stop-color="#999999"/>
</linearGradient>
<linearGradient id="paint2_linear_147_522" x1="126.039" y1="-1.10156" x2="126.039" y2="2.54282" gradientUnits="userSpaceOnUse">
<stop stop-color="white"/>
<stop offset="1" stop-color="#999999"/>
</linearGradient>
<linearGradient id="paint3_linear_147_522" x1="124.266" y1="-4.75781" x2="124.266" y2="-1.11343" gradientUnits="userSpaceOnUse">
<stop stop-color="white"/>
<stop offset="1" stop-color="#999999"/>
</linearGradient>
<linearGradient id="paint4_linear_147_522" x1="121.148" y1="33.5234" x2="121.148" y2="37.1678" gradientUnits="userSpaceOnUse">
<stop stop-color="white"/>
<stop offset="1" stop-color="#999999"/>
</linearGradient>
<linearGradient id="paint5_linear_147_522" x1="126.673" y1="37.1719" x2="126.673" y2="40.8163" gradientUnits="userSpaceOnUse">
<stop stop-color="white"/>
<stop offset="1" stop-color="#999999"/>
</linearGradient>
<linearGradient id="paint6_linear_147_522" x1="244.789" y1="-1.10938" x2="244.789" y2="2.53501" gradientUnits="userSpaceOnUse">
<stop stop-color="white"/>
<stop offset="1" stop-color="#999999"/>
</linearGradient>
<linearGradient id="paint7_linear_147_522" x1="243.009" y1="-4.75781" x2="243.009" y2="-1.11343" gradientUnits="userSpaceOnUse">
<stop stop-color="white"/>
<stop offset="1" stop-color="#999999"/>
</linearGradient>
<clipPath id="clip0_147_522">
<rect width="115.254" height="33.5284" rx="16.7642" fill="white"/>
</clipPath>
<clipPath id="clip1_147_522">
<rect x="118.75" width="115.254" height="33.5284" rx="16.7642" fill="white"/>
</clipPath>
</defs>
</svg>
