<svg width="34" height="34" viewBox="0 0 34 34" fill="none" xmlns="http://www.w3.org/2000/svg">
<rect x="0.335762" y="0.335762" width="32.9046" height="32.9046" rx="16.4523" stroke="#666666" stroke-width="0.671523"/>
<path d="M20.9241 14.0171C20.9667 13.8366 20.855 13.6558 20.6746 13.6131L17.7338 12.9178C17.5533 12.8752 17.3724 12.9869 17.3298 13.1674C17.2871 13.3478 17.3988 13.5287 17.5793 13.5714L20.1933 14.1894L19.5753 16.8034C19.5326 16.9839 19.6443 17.1647 19.8248 17.2074C20.0053 17.2501 20.1861 17.1384 20.2288 16.9579L20.9241 14.0171ZM10.2972 20.301L10.4736 20.5867L20.7737 14.2255L20.5973 13.9399L20.4209 13.6542L10.1208 20.0153L10.2972 20.301Z" fill="#666666"/>
</svg>
